<svg width="161" height="120" viewBox="0 0 161 120" fill="none" xmlns="http://www.w3.org/2000/svg">
<g clip-path="url(#clip0_89_838)">
<path d="M60.2479 20.1698C64.9847 24.1412 70.2654 20.8162 75.3266 20.5622C77.6737 20.4444 80.016 21.0113 82.3292 21.4343C84.5249 21.8357 86.7124 22.4196 88.7197 23.4154C90.9076 24.4627 92.7686 26.0886 94.102 28.1178C94.3668 28.5325 94.7663 28.2262 94.7633 27.7305C94.7314 22.4659 92.4596 22.8922 90.0876 23.2804C87.8326 23.6496 85.9155 21.4074 83.6903 20.9249C81.3617 20.4554 79.0083 20.1194 76.6415 19.9184C74.0756 19.6632 71.5034 19.49 68.9248 19.3989C66.0335 19.2967 63.1412 19.2979 60.2479 19.4024C59.7564 19.4199 59.7541 20.1873 60.2479 20.1698Z" fill="#3F3D56"/>
<path d="M44.2706 62.5221C44.3383 62.5948 44.3751 62.691 44.3734 62.7904C44.3716 62.8898 44.3314 62.9847 44.2613 63.055C44.1911 63.1253 44.0964 63.1655 43.9972 63.1673C43.898 63.169 43.802 63.1321 43.7294 63.0644C40.5995 60.3761 37.4696 57.6896 34.3397 55.0047C34.3361 55.0006 34.3318 54.9971 34.3269 54.9945C34.1096 54.831 33.904 54.6524 33.7117 54.4599C30.7987 54.1197 27.5974 52.9943 24.5645 52.5057C21.8864 52.9048 19.216 53.3805 16.5303 53.7335C14.1904 54.0594 11.8313 54.2285 9.46888 54.2399C7.54652 54.2297 8.10269 49.2921 6.35902 48.3816C4.54643 47.4352 0.911404 50.4979 0.446766 48.5846C0.217198 47.6052 0.0677806 46.6086 0 45.6048V39.3663C0.247636 36.6499 4.56429 37.4878 6.61432 35.5925C9.69062 32.7482 10.7351 26.0759 14.6718 25.9966C19.3631 25.8974 24.0559 26.1033 28.7206 26.613C32.5245 27.0325 36.525 27.4392 40.043 29.0634C41.5517 29.7617 42.9737 33.8005 44.0128 35.1126C45.1986 36.6454 45.8698 38.5149 45.93 40.4533C46.1164 44.5689 44.2477 48.334 43.2239 52.2193C42.3355 55.5828 41.8351 59.6599 44.2706 62.5221Z" fill="#F2F2F2"/>
<path d="M34.6954 55.3988C37.8686 58.1239 41.0423 60.8484 44.2163 63.5724C44.289 63.6403 44.3851 63.6772 44.4843 63.6755C44.5836 63.6737 44.6784 63.6334 44.7486 63.5631C44.8188 63.4927 44.859 63.3978 44.8608 63.2983C44.8625 63.1989 44.8256 63.1026 44.7579 63.0298C42.3225 60.1697 42.823 56.0925 43.7107 52.7271C44.7357 48.8414 46.6044 45.0777 46.4174 40.9631C46.358 39.0242 45.6866 37.1541 44.4995 35.6217C43.4265 34.3322 42.0674 33.3119 40.5308 32.6423C37.013 31.0181 33.0132 30.6096 29.2076 30.1912C24.5435 29.6811 19.8512 29.4749 15.1604 29.5739C11.2226 29.655 6.61627 29.7271 3.54017 32.5722C0.738726 35.1633 0.356092 39.2379 0.383108 42.8354C0.398757 44.9197 0.438669 47.0605 0.933205 49.0946C1.39808 51.0067 2.40621 52.8691 4.21938 53.8152C5.96338 54.7252 8.03531 54.7395 9.95588 54.7488C12.3183 54.7388 14.6774 54.5691 17.017 54.241C21.6996 53.6273 26.3375 52.6361 31.0581 52.3366C32.2132 52.2633 33.3718 52.2307 34.5292 52.2549C35.0222 52.2652 35.0222 51.4979 34.5292 51.4875C29.9394 51.3915 25.3967 52.1812 20.8807 52.9003C16.5127 53.5959 12.0475 54.2517 7.61383 53.8998C6.64189 53.8542 5.6862 53.6327 4.79303 53.2459C3.93041 52.8352 3.20051 52.1897 2.68677 51.383C1.53252 49.582 1.31383 47.326 1.21412 45.2249C1.10038 43.4065 1.11723 41.5823 1.26453 39.7664C1.43464 38.0056 1.8443 36.2197 2.78009 34.6996C4.91469 31.2323 9.23051 29.7894 12.9139 30.4123C17.0618 31.1138 20.2346 34.4356 26.5639 30.7025C28.5508 29.5307 31.1543 31.1614 33.4341 31.506C35.1378 31.7414 36.8183 32.1225 38.4572 32.6451C40.0341 33.1272 41.5033 33.9097 42.7843 34.9495C44.1251 36.0856 45.0585 37.6296 45.4423 39.3464C46.3214 43.3001 44.5789 47.2464 43.4275 50.9463C42.4011 54.2443 41.5254 58.1178 42.9074 61.4456C43.2297 62.2189 43.6714 62.9366 44.2163 63.5724L44.7579 63.0298C41.5847 60.3048 38.4111 57.5803 35.237 54.8562C34.8646 54.5364 34.3204 55.0768 34.6954 55.3988Z" fill="#E6E6E6"/>
<path d="M21.1742 37.5455H9.62964C9.52371 37.5455 9.42211 37.5033 9.34721 37.4283C9.2723 37.3532 9.23022 37.2514 9.23022 37.1453C9.23022 37.0392 9.2723 36.9374 9.34721 36.8623C9.42211 36.7873 9.52371 36.7451 9.62964 36.7451H21.1742C21.2802 36.7451 21.3817 36.7873 21.4567 36.8623C21.5316 36.9374 21.5736 37.0392 21.5736 37.1453C21.5736 37.2514 21.5316 37.3532 21.4567 37.4283C21.3817 37.5033 21.2802 37.5455 21.1742 37.5455Z" fill="white"/>
<path d="M21.1742 46.0793H9.62964C9.57719 46.0793 9.52525 46.0689 9.47679 46.0488C9.42833 46.0287 9.3843 45.9992 9.34721 45.9621C9.31012 45.9249 9.2807 45.8808 9.26062 45.8323C9.24055 45.7837 9.23022 45.7317 9.23022 45.6791C9.23022 45.6266 9.24055 45.5745 9.26062 45.526C9.2807 45.4774 9.31012 45.4333 9.34721 45.3961C9.3843 45.359 9.42833 45.3295 9.47679 45.3094C9.52525 45.2893 9.57719 45.2789 9.62964 45.2789H21.1742C21.2802 45.2789 21.3817 45.3211 21.4567 45.3961C21.5316 45.4712 21.5736 45.573 21.5736 45.6791C21.5736 45.7852 21.5316 45.887 21.4567 45.9621C21.3817 46.0371 21.2802 46.0793 21.1742 46.0793Z" fill="white"/>
<path d="M30.5502 41.8151H9.62964C9.52371 41.8151 9.42211 41.773 9.34721 41.6979C9.2723 41.6229 9.23022 41.5211 9.23022 41.415C9.23022 41.3088 9.2723 41.207 9.34721 41.132C9.42211 41.0569 9.52371 41.0148 9.62964 41.0148H30.5502C30.6562 41.0148 30.7578 41.0569 30.8327 41.132C30.9076 41.207 30.9497 41.3088 30.9497 41.415C30.9497 41.5211 30.9076 41.6229 30.8327 41.6979C30.7578 41.773 30.6562 41.8151 30.5502 41.8151Z" fill="white"/>
<path d="M57.0352 81.9614C57.1029 82.0341 57.1397 82.1303 57.138 82.2297C57.1362 82.3291 57.096 82.424 57.0259 82.4943C56.9557 82.5646 56.861 82.6048 56.7618 82.6066C56.6626 82.6083 56.5666 82.5714 56.494 82.5037C53.3641 79.8154 50.2342 77.1289 47.1043 74.444C47.1007 74.4398 47.0964 74.4364 47.0915 74.4338C46.8741 74.2703 46.6685 74.0916 46.4763 73.8992C43.5633 73.559 40.3619 72.4336 37.3291 71.945C34.651 72.3441 31.4701 75.3776 28.7843 75.7306C26.4444 76.0565 24.0853 76.2257 21.7229 76.237C19.8005 76.2268 20.3567 70.0103 18.613 69.0997C16.8004 68.1534 13.676 69.9372 13.2114 68.0239C12.9739 67.0494 11.8017 66.0493 11.7251 65.0441V58.8056C11.9727 56.0892 13.7679 53.3983 15.8179 51.503C18.8942 48.6587 23.4997 48.5845 27.4364 48.5053C32.1277 48.4061 36.8205 48.612 41.4852 49.1217C45.2891 49.5412 49.2896 49.9479 52.8076 51.5721C54.3442 52.2423 55.7036 53.2627 56.7774 54.5519C57.9632 56.0847 58.6344 57.9542 58.6947 59.8926C58.881 64.0081 57.0123 67.7732 55.9885 71.6586C55.1001 75.0221 54.5997 79.0992 57.0352 81.9614Z" fill="#F2F2F2"/>
<path d="M47.4601 74.8382C50.6333 77.5632 53.8069 80.2877 56.981 83.0118C57.0536 83.0796 57.1497 83.1165 57.249 83.1148C57.3483 83.1131 57.443 83.0728 57.5132 83.0024C57.5834 82.9321 57.6237 82.8372 57.6254 82.7377C57.6271 82.6382 57.5903 82.5419 57.5225 82.4692C55.0872 79.6091 55.5876 75.5318 56.4754 72.1664C57.5004 68.2808 59.369 64.517 59.182 60.4025C59.1227 58.4636 58.4512 56.5935 57.2642 55.061C56.1912 53.7715 54.8321 52.7512 53.2954 52.0817C49.7776 50.4575 45.7779 50.049 41.9723 49.6305C37.3081 49.1204 32.6159 48.9142 27.9251 49.0132C23.9873 49.0944 19.3809 49.1664 16.3048 52.0115C13.5034 54.6026 13.1207 58.6772 13.1478 62.2747C13.1634 64.359 13.2033 66.4998 13.6979 68.5339C14.1627 70.446 15.1709 72.3084 16.984 73.2545C18.728 74.1646 20.8 74.1788 22.7205 74.1881C25.083 74.1781 27.442 74.0085 29.7816 73.6804C34.4643 73.0667 39.1022 72.0754 43.8227 71.7759C44.9779 71.7026 46.1365 71.67 47.2939 71.6942C47.7869 71.7045 47.7868 70.9372 47.2939 70.9269C42.704 70.8308 38.1613 71.6205 33.6454 72.3397C29.2774 73.0353 24.8122 73.691 20.3785 73.3391C19.4065 73.2935 18.4509 73.072 17.5577 72.6852C16.6951 72.2746 15.9652 71.629 15.4514 70.8224C14.2972 69.0214 14.0785 66.7653 13.9788 64.6642C13.865 62.8459 13.8819 61.0217 14.0292 59.2057C14.1993 57.445 14.609 55.659 15.5447 54.1389C17.6793 50.6716 22.5458 47.8131 25.6786 49.8516C29.2578 52.1807 33.8355 52.2815 39.3286 50.1419C41.4774 49.3049 43.919 50.6008 46.1987 50.9454C47.9025 51.1807 49.583 51.5618 51.2219 52.0844C52.7987 52.5666 54.2679 53.349 55.549 54.3888C56.8898 55.5249 57.8232 57.069 58.207 58.7858C59.086 62.7394 57.3436 66.6857 56.1921 70.3856C55.1657 73.6837 54.2901 77.5571 55.6721 80.8849C55.9944 81.6582 56.4361 82.376 56.981 83.0118L57.5225 82.4692C54.3493 79.7441 51.1757 77.0196 48.0016 74.2956C47.6292 73.9758 47.0851 74.5161 47.4601 74.8382Z" fill="#E6E6E6"/>
<path d="M33.9389 56.9848H22.3943C22.2884 56.9848 22.1868 56.9426 22.1119 56.8676C22.0369 56.7925 21.9949 56.6908 21.9949 56.5846C21.9949 56.4785 22.0369 56.3767 22.1119 56.3017C22.1868 56.2266 22.2884 56.1844 22.3943 56.1844H33.9389C34.0448 56.1844 34.1464 56.2266 34.2213 56.3017C34.2962 56.3767 34.3383 56.4785 34.3383 56.5846C34.3383 56.6908 34.2962 56.7925 34.2213 56.8676C34.1464 56.9426 34.0448 56.9848 33.9389 56.9848Z" fill="white"/>
<path d="M33.9389 65.5186H22.3943C22.2884 65.5186 22.1868 65.4765 22.1119 65.4014C22.0369 65.3264 21.9949 65.2246 21.9949 65.1184C21.9949 65.0123 22.0369 64.9105 22.1119 64.8355C22.1868 64.7604 22.2884 64.7183 22.3943 64.7183H33.9389C34.0448 64.7183 34.1464 64.7604 34.2213 64.8355C34.2962 64.9105 34.3383 65.0123 34.3383 65.1184C34.3383 65.2246 34.2962 65.3264 34.2213 65.4014C34.1464 65.4765 34.0448 65.5186 33.9389 65.5186Z" fill="white"/>
<path d="M43.3149 61.2545H22.3943C22.2884 61.2545 22.1868 61.2123 22.1119 61.1373C22.0369 61.0622 21.9949 60.9604 21.9949 60.8543C21.9949 60.7481 22.0369 60.6464 22.1119 60.5713C22.1868 60.4963 22.2884 60.4541 22.3943 60.4541H43.3149C43.4208 60.4541 43.5224 60.4963 43.5973 60.5713C43.6722 60.6464 43.7143 60.7481 43.7143 60.8543C43.7143 60.9604 43.6722 61.0622 43.5973 61.1373C43.5224 61.2123 43.4208 61.2545 43.3149 61.2545Z" fill="white"/>
<path d="M119.963 96.1515H87.7007C87.4046 96.1515 87.1207 96.0337 86.9114 95.8239C86.7021 95.6142 86.5845 95.3298 86.5845 95.0332C86.5845 94.7365 86.7021 94.4521 86.9114 94.2424C87.1207 94.0326 87.4046 93.9148 87.7007 93.9148H119.963C120.259 93.9148 120.543 94.0326 120.753 94.2424C120.962 94.4521 121.079 94.7365 121.079 95.0332C121.079 95.3298 120.962 95.6142 120.753 95.8239C120.543 96.0337 120.259 96.1515 119.963 96.1515Z" fill="#F2F2F2"/>
<path d="M119.963 120H87.7007C87.4046 120 87.1207 119.882 86.9114 119.672C86.7021 119.463 86.5845 119.178 86.5845 118.882C86.5845 118.585 86.7021 118.301 86.9114 118.091C87.1207 117.881 87.4046 117.763 87.7007 117.763H119.963C120.259 117.763 120.543 117.881 120.753 118.091C120.962 118.301 121.079 118.585 121.079 118.882C121.079 119.178 120.962 119.463 120.753 119.672C120.543 119.882 120.259 120 119.963 120Z" fill="#F2F2F2"/>
<path d="M146.165 108.084H87.7007C87.5539 108.084 87.4086 108.055 87.273 107.999C87.1374 107.943 87.0141 107.86 86.9103 107.757C86.8065 107.653 86.7241 107.529 86.6679 107.394C86.6117 107.258 86.5828 107.112 86.5828 106.965C86.5828 106.818 86.6117 106.673 86.6679 106.537C86.7241 106.401 86.8065 106.278 86.9103 106.174C87.0141 106.07 87.1374 105.988 87.273 105.931C87.4086 105.875 87.5539 105.847 87.7007 105.847H146.165C146.461 105.847 146.745 105.965 146.954 106.175C147.163 106.385 147.28 106.669 147.28 106.965C147.28 107.261 147.163 107.546 146.954 107.755C146.745 107.965 146.461 108.083 146.165 108.084Z" fill="#F2F2F2"/>
<path d="M69.491 106.828L71.324 108.556L78.9981 102.138L76.293 99.5872L69.491 106.828Z" fill="#FFB6B6"/>
<path d="M72.8282 114.301L71.8097 109.543L73.0442 108.229L72.3797 107.672L70.3164 105.949L69.8116 105.526L65.0654 109.803L66.4412 111.099L67.9078 110.03L67.3128 111.922L70.9565 115.358C71.1313 115.523 71.3539 115.628 71.5921 115.657C71.8302 115.686 72.0714 115.637 72.2803 115.519C72.4893 115.401 72.6552 115.22 72.7537 115C72.8523 114.781 72.8784 114.536 72.8282 114.301Z" fill="#2F2E41"/>
<path d="M60.5562 113.511L63.0445 113.89L65.72 104.24L62.0476 103.681L60.5562 113.511Z" fill="#FFB6B6"/>
<path d="M67.5405 117.761L64.004 114.426L64.2746 112.642L63.4119 112.561L60.7371 112.318L60.0815 112.257L58.6013 118.479L60.4683 118.762L61.069 117.047L61.6523 118.943L66.5997 119.697C66.8369 119.733 67.0794 119.692 67.2918 119.58C67.5041 119.469 67.6753 119.292 67.7804 119.076C67.8854 118.86 67.9188 118.616 67.8756 118.379C67.8325 118.143 67.7151 117.926 67.5405 117.761Z" fill="#2F2E41"/>
<path d="M84.4951 44.9572L91.6313 57.7626C91.6313 57.7626 91.3335 84.099 92.2819 85.0759C93.2303 86.0527 94.089 86.9288 93.2303 86.9209C92.3716 86.913 92.6486 93.1432 92.6486 93.1432L76.8204 105.421L72.9909 102.351L82.5979 90.4706L77.2924 66.1517C77.2924 66.1517 73.4807 89.1498 72.7938 89.8381C72.1068 90.5263 71.6924 90.5214 72.4148 91.2121C73.1372 91.9028 72.4148 93.465 72.4148 93.465L64.8843 109.124L60.7996 108.608C60.7996 108.608 61.5077 95.8243 63.9736 90.3363V64.4014C63.7879 66.625 72.4758 44.1191 67.163 45.8083C68.8439 45.2738 84.4951 44.9572 84.4951 44.9572Z" fill="#2F2E41"/>
<path d="M81.2215 14.4403H75.322L74.4867 17.7877L69.9507 19.0444C69.9507 19.0444 67.7071 33.9513 69.5914 35.1537C71.4757 36.3561 70.1618 40.1173 70.1618 40.1173C70.1618 40.1173 65.4692 45.1949 66.0324 45.9472C66.5955 46.6994 67.7379 45.5548 66.4159 46.8794C65.0938 48.2039 64.343 48.0158 64.7184 48.392C64.9505 48.6305 65.1305 48.915 65.2467 49.2271L63.6277 53.4508C63.6277 53.4508 72.2265 55.1621 76.5437 52.7174C80.8609 50.2726 90.4337 54.9741 90.4337 54.9741C90.4337 54.9741 89.9413 52.5056 89.5306 52.1413C89.1198 51.7771 88.1621 52.6981 88.8286 51.4853C89.4952 50.2726 90.0583 50.8367 89.4952 50.2726C88.9321 49.7084 86.4919 42.186 86.4919 42.186C86.4919 42.186 84.6149 38.0486 86.6797 36.3561C88.7444 34.6636 89.5306 29.1121 89.5306 29.1121L87.0555 19.0444L82.9256 18.1142L81.2215 14.4403Z" fill="#E6E6E6"/>
<path d="M57.8683 52.8755L59.2852 47.1854L56.1538 45.9209L54.8694 51.9903C54.5764 52.2075 54.3496 52.5023 54.2147 52.8416C54.0797 53.1808 54.0419 53.5511 54.1055 53.9107C54.169 54.2703 54.3314 54.6051 54.5745 54.8773C54.8175 55.1495 55.1315 55.3484 55.4811 55.4516C55.8308 55.5548 56.2023 55.5583 56.5538 55.4616C56.9053 55.3649 57.2229 55.1718 57.4709 54.9042C57.7189 54.6365 57.8875 54.3049 57.9577 53.9465C58.0279 53.5881 57.9969 53.2172 57.8683 52.8755Z" fill="#FFB6B6"/>
<path d="M71.6318 18.664L71.5384 18.6479C70.669 18.4982 69.7764 18.5631 68.9377 18.837C68.099 19.1108 67.3396 19.5853 66.7251 20.2194C65.1212 21.8728 57.9611 34.1684 58.2188 36.2234C58.4591 38.1398 58.5517 37.7135 57.677 38.6919C56.8023 39.6704 56.4695 38.1803 56.456 40.2175C56.4425 42.2546 57.2195 42.2369 56.3937 42.735C55.5679 43.2331 55.0219 42.8861 55.1727 44.2606C55.3235 45.635 55.0927 45.9997 55.0438 46.4801C54.9949 46.9604 53.8093 50.0428 53.8093 50.0428C53.8093 50.0428 57.2987 50.9816 58.7059 52.3872C58.7059 52.3872 58.8659 48.9089 59.5763 48.5932C60.2867 48.2774 60.9481 48.4421 60.7484 47.548C60.5487 46.654 59.5232 46.258 60.7796 46.2892C62.036 46.3205 63.9765 39.6265 63.9765 39.6265L72.3677 24.2876L71.6318 18.664Z" fill="#E6E6E6"/>
<path d="M90.5685 55.6943L90.8205 49.8352L94.1813 49.5125L93.6948 55.6976C93.9143 55.9892 94.0483 56.3363 94.0816 56.7C94.115 57.0637 94.0465 57.4295 93.8837 57.7562C93.7209 58.083 93.4704 58.3579 93.1603 58.5498C92.8502 58.7418 92.4928 58.8433 92.1283 58.8429C91.7638 58.8425 91.4066 58.7403 91.0969 58.5477C90.7872 58.355 90.5373 58.0797 90.3752 57.7525C90.2132 57.4254 90.1454 57.0595 90.1795 56.6959C90.2136 56.3322 90.3483 55.9854 90.5685 55.6943Z" fill="#FFB6B6"/>
<path d="M87.0555 18.9764L87.1497 18.9875C88.0257 19.0911 88.8633 19.407 89.59 19.9079C90.3167 20.4089 90.9106 21.0797 91.3203 21.8624C92.3903 23.9037 95.7755 37.7291 94.9467 39.6264C94.1737 41.3958 94.2056 40.9607 94.7674 42.1475C95.3291 43.3344 96.0701 42.0001 95.5063 43.9574C94.9425 45.9147 94.2026 45.6769 94.8534 46.3893C95.5043 47.1016 96.1261 46.924 95.5924 48.1991C95.0586 49.4742 95.1768 49.8896 95.0876 50.3641C94.9985 50.8387 95.2628 54.1313 95.2628 54.1313C95.2628 54.1313 91.651 54.04 89.9037 54.988C89.9037 54.988 90.7348 51.6071 90.1431 51.1024C89.5513 50.5978 88.8704 50.5677 89.315 49.7671C89.7596 48.9665 90.855 48.8782 89.6414 48.5512C88.4278 48.2241 88.462 41.2535 88.462 41.2535L84.7578 24.16L87.0555 18.9764Z" fill="#E6E6E6"/>
<path d="M64.8671 10.4909C64.8203 12.5085 65.5728 14.4621 66.6539 16.178C67.0151 15.1816 67.5208 14.244 68.1549 13.3955C67.8513 15.2756 68.1747 17.2035 69.0749 18.8809C69.1067 18.9037 69.1396 18.9248 69.1734 18.9442C70.0546 19.4753 71.1719 19.6904 72.1252 19.3068C70.1555 17.1796 69.9048 13.6552 71.5562 11.2692C72.0237 10.5921 72.6283 9.99333 72.9179 9.22285C73.3751 7.99351 72.9356 6.63997 72.6584 5.35825C72.3991 4.16536 72.3537 2.7458 73.1525 1.87156C73.0672 1.74939 72.951 1.65214 72.8158 1.58978C72.6806 1.52742 72.5313 1.50219 72.3832 1.51667C71.8907 1.58637 71.5322 2.01526 71.3039 2.45699C71.0756 2.89871 70.925 3.38829 70.6068 3.76981C70.0176 4.48394 69.0141 4.65277 68.1684 5.02914C66.1204 5.94307 64.9162 8.24597 64.8671 10.4909Z" fill="#2F2E41"/>
<path d="M82.1061 9.33734C81.9891 8.92695 82.7957 11.4356 82.4065 11.4809C80.6336 11.6847 78.1999 12.7455 76.9652 13.2404C76.9095 13.2339 76.8539 13.2274 76.8 13.2193C76.6675 13.2048 76.5383 13.1838 76.4107 13.1595C73.5356 12.6145 72.4299 8.18947 72.4299 8.14903C72.4299 7.95011 72.9065 2.48645 73.6571 2.40559C73.8543 2.38415 74.0525 2.37336 74.2508 2.37324H76.1136C76.4991 2.29002 76.8898 2.23328 77.283 2.20342H77.2862C81.0364 1.91716 83.9933 4.20725 83.7169 6.99387C83.7153 6.9971 83.712 7.00034 83.7104 7.00357C83.6302 7.12325 83.5599 7.23647 83.4978 7.34483C83.4373 7.44672 83.3865 7.54375 83.3424 7.63594C83.0006 8.34756 83.8792 9.24299 83.2966 9.41012C82.5217 9.63241 85.3345 16.9387 82.2675 16.9387C83.7594 17.3636 82.4289 10.4695 82.1061 9.33734Z" fill="#2F2E41"/>
<path d="M78.7583 13.6244C81.1941 13.6244 83.1687 11.646 83.1687 9.20556C83.1687 6.76512 81.1941 4.78674 78.7583 4.78674C76.3225 4.78674 74.3479 6.76512 74.3479 9.20556C74.3479 11.646 76.3225 13.6244 78.7583 13.6244Z" fill="#FFB6B6"/>
<path d="M83.717 7.23487C83.6434 7.27369 83.5714 7.30926 83.4978 7.34485C83.421 7.38205 83.3441 7.41925 83.2673 7.45321C81.7904 8.1244 80.5883 8.19878 79.8589 7.23488C79.8394 6.72769 79.7257 6.22859 79.5236 5.76313C79.5593 6.28329 79.4225 6.80068 79.1344 7.23488H77.6658C76.153 8.24084 75.3761 8.34597 76.4261 11.6485C76.7188 12.5687 77.8829 17.9236 77.4249 18.7177C77.2924 18.7032 75.8831 12.8379 75.7555 12.8137C72.8804 12.2686 71.0536 7.52276 71.2874 7.25429C71.2863 6.49083 71.4615 5.73746 71.7993 5.05314C72.2267 4.18615 72.893 3.45993 73.7194 2.96035C74.2119 2.72106 74.7254 2.52778 75.2534 2.38298C75.2665 2.37974 75.278 2.3765 75.291 2.37327C75.453 2.3296 75.6181 2.28917 75.7833 2.2552C76.1246 2.18301 76.4697 2.13063 76.8169 2.09833C76.8415 2.09671 76.866 2.09509 76.8889 2.09509C77.0276 2.09542 77.1636 2.13282 77.2831 2.20345C77.2847 2.20345 77.2847 2.20507 77.2863 2.20507C77.3717 2.25502 77.4462 2.32156 77.5055 2.40076C77.6099 2.53402 77.6664 2.69872 77.6657 2.86817H79.3012C79.3617 2.86817 79.4222 2.86978 79.4828 2.87301C80.5743 2.91038 81.6126 3.35451 82.3946 4.11848C83.1765 4.88245 83.6457 5.91127 83.7104 7.00361C83.7154 7.08122 83.717 7.15723 83.717 7.23487Z" fill="#2F2E41"/>
<path d="M74.0738 5.82229C75.6785 5.82229 76.9794 4.51893 76.9794 2.91114C76.9794 1.30336 75.6785 0 74.0738 0C72.4691 0 71.1682 1.30336 71.1682 2.91114C71.1682 4.51893 72.4691 5.82229 74.0738 5.82229Z" fill="#2F2E41"/>
<path d="M101.682 90.6217C101.801 90.6272 101.919 90.596 102.019 90.5323C102.119 90.4687 102.198 90.3756 102.243 90.2658C102.289 90.156 102.3 90.0348 102.275 89.9185C102.25 89.8022 102.189 89.6965 102.102 89.6157L102.063 89.4575C102.068 89.4449 102.073 89.4322 102.078 89.4196C102.198 89.1367 102.398 88.8955 102.654 88.7263C102.91 88.5571 103.21 88.4674 103.517 88.4685C103.823 88.4697 104.123 88.5616 104.378 88.7327C104.632 88.9038 104.831 89.1465 104.948 89.4303C105.418 90.5629 106.015 91.6975 106.162 92.8951C106.227 93.4244 106.2 93.961 106.082 94.481C107.184 92.0716 107.756 89.4528 107.76 86.8023C107.76 86.1372 107.723 85.4725 107.65 84.8115C107.589 84.2697 107.504 83.7317 107.396 83.1975C106.805 80.2992 105.536 77.5826 103.694 75.2709C102.802 74.7835 102.081 74.0339 101.628 73.1232C101.464 72.7959 101.348 72.4464 101.283 72.0858C101.384 72.099 101.662 70.5642 101.587 70.47C101.727 70.2569 101.978 70.151 102.131 69.943C102.892 68.9088 103.941 69.0894 104.489 70.4948C105.659 71.0864 105.67 72.0674 104.952 73.0109C104.495 73.6112 104.433 74.4234 104.032 75.0661C104.073 75.1189 104.116 75.1701 104.157 75.223C104.911 76.1938 105.568 77.2363 106.118 78.3355C105.984 77.1041 106.144 75.8584 106.584 74.701C107.031 73.6223 107.867 72.7138 108.604 71.7812C108.799 71.5307 109.063 71.3437 109.364 71.2438C109.665 71.144 109.989 71.1357 110.294 71.2201C110.6 71.3045 110.874 71.4778 111.081 71.718C111.288 71.9583 111.42 72.2547 111.459 72.5699C111.461 72.5836 111.462 72.5974 111.464 72.6111C111.354 72.673 111.247 72.7386 111.142 72.808C111.011 72.8962 110.909 73.0221 110.85 73.1693C110.791 73.3165 110.777 73.4781 110.812 73.633C110.846 73.7879 110.926 73.9288 111.042 74.0373C111.157 74.1457 111.303 74.2167 111.459 74.2409L111.475 74.2433C111.436 74.6384 111.367 75.03 111.269 75.4147C112.214 79.0764 110.174 80.41 107.261 80.4699C107.196 80.503 107.134 80.536 107.069 80.5674C107.622 82.1381 107.969 83.7741 108.101 85.4344C108.176 86.4139 108.172 87.3979 108.088 88.3767L108.093 88.342C108.304 87.2536 108.884 86.2715 109.734 85.5616C110.996 84.5224 112.78 84.1398 114.142 83.3045C114.287 83.2114 114.455 83.1617 114.627 83.1613C114.8 83.1608 114.968 83.2097 115.113 83.3021C115.259 83.3945 115.374 83.5266 115.447 83.6828C115.52 83.839 115.546 84.0128 115.524 84.1836L115.518 84.2201C115.315 84.303 115.118 84.3984 114.926 84.5059C114.817 84.5678 114.71 84.6334 114.605 84.7028C114.473 84.791 114.371 84.9169 114.312 85.0641C114.253 85.2113 114.24 85.3729 114.274 85.5278C114.309 85.6827 114.389 85.8236 114.504 85.9321C114.62 86.0405 114.765 86.1115 114.922 86.1357L114.938 86.1381C114.949 86.1398 114.959 86.1415 114.971 86.1431C114.624 86.9731 114.137 87.737 113.531 88.4015C112.94 91.598 110.402 91.9013 107.688 90.9704H107.686C107.388 92.2673 106.956 93.5296 106.398 94.7371H101.798C101.781 94.6859 101.766 94.633 101.751 94.5818C102.177 94.6086 102.605 94.5831 103.024 94.5058C102.683 94.0862 102.342 93.6633 102 93.2436C101.993 93.2358 101.986 93.2275 101.979 93.2189C101.806 93.0041 101.631 92.791 101.458 92.5762L101.458 92.576C101.449 91.9176 101.524 91.2608 101.682 90.6217Z" fill="#F2F2F2"/>
<path d="M34.458 119.652C34.4579 119.692 34.4657 119.732 34.4809 119.769C34.4961 119.806 34.5185 119.839 34.5467 119.868C34.575 119.896 34.6085 119.918 34.6454 119.934C34.6823 119.949 34.7219 119.957 34.7618 119.957H160.696C160.777 119.957 160.854 119.924 160.911 119.867C160.968 119.81 161 119.733 161 119.652C161 119.571 160.968 119.494 160.911 119.437C160.854 119.38 160.777 119.348 160.696 119.348H34.7618C34.7219 119.348 34.6823 119.355 34.6454 119.371C34.6085 119.386 34.575 119.408 34.5467 119.437C34.5185 119.465 34.4961 119.499 34.4809 119.536C34.4657 119.573 34.4579 119.612 34.458 119.652Z" fill="#CCCCCC"/>
<path d="M91.4851 54.3381C91.8402 54.7135 91.3019 55.2013 90.8876 54.8795C87.4322 52.1955 83.9768 49.5132 80.5214 46.8327C80.5174 46.8285 80.5126 46.825 80.5073 46.8225C80.2689 46.6605 80.042 46.4821 79.8281 46.2887C76.6123 45.9491 73.078 44.8254 69.7297 44.3377C66.7732 44.7361 63.8251 45.2111 60.8601 45.5635C58.2741 45.889 55.6707 46.0578 53.0644 46.0691C50.9421 46.0589 48.6564 46.0461 46.7314 45.137C44.7303 44.1921 43.617 42.333 43.1041 40.4228C42.8511 39.4479 42.6861 38.4522 42.6108 37.4477V31.2191C42.8842 28.507 43.7185 25.8205 45.9817 23.9282C49.3779 21.0884 54.4623 21.0143 58.8083 20.9352C63.9858 20.8361 69.1646 21.0416 74.3181 21.5506C78.5175 21.9694 82.934 22.3755 86.8178 23.9971C88.4835 24.6943 90.0533 25.6622 91.2004 26.9722C92.4913 28.4564 93.238 30.3374 93.317 32.3044C93.5228 36.4134 91.4597 40.1725 90.3295 44.0517C89.3487 47.4098 88.7963 51.4805 91.4851 54.3381Z" fill="#FF731D"/>
<path d="M65.8507 27.8258H54.3062C54.2537 27.8258 54.2018 27.8154 54.1533 27.7953C54.1048 27.7752 54.0608 27.7457 54.0237 27.7085C53.9866 27.6714 53.9572 27.6273 53.9371 27.5787C53.9171 27.5302 53.9067 27.4781 53.9067 27.4256C53.9067 27.373 53.9171 27.321 53.9371 27.2724C53.9572 27.2239 53.9866 27.1798 54.0237 27.1426C54.0608 27.1054 54.1048 27.076 54.1533 27.0558C54.2018 27.0357 54.2537 27.0254 54.3062 27.0254H65.8507C65.9567 27.0254 66.0583 27.0675 66.1332 27.1426C66.2081 27.2176 66.2501 27.3194 66.2501 27.4256C66.2501 27.5317 66.2081 27.6335 66.1332 27.7085C66.0583 27.7836 65.9567 27.8258 65.8507 27.8258Z" fill="white"/>
<path d="M65.8507 36.3596H54.3062C54.2002 36.3596 54.0986 36.3174 54.0237 36.2424C53.9488 36.1673 53.9067 36.0655 53.9067 35.9594C53.9067 35.8533 53.9488 35.7515 54.0237 35.6764C54.0986 35.6014 54.2002 35.5592 54.3062 35.5592H65.8507C65.9567 35.5592 66.0583 35.6014 66.1332 35.6764C66.2081 35.7515 66.2501 35.8533 66.2501 35.9594C66.2501 36.0655 66.2081 36.1673 66.1332 36.2424C66.0583 36.3174 65.9567 36.3596 65.8507 36.3596Z" fill="white"/>
<path d="M75.2268 32.0955H54.3062C54.2002 32.0955 54.0986 32.0534 54.0237 31.9783C53.9488 31.9033 53.9067 31.8015 53.9067 31.6953C53.9067 31.5892 53.9488 31.4874 54.0237 31.4124C54.0986 31.3373 54.2002 31.2952 54.3062 31.2952H75.2268C75.3327 31.2952 75.4343 31.3373 75.5092 31.4124C75.5841 31.4874 75.6262 31.5892 75.6262 31.6953C75.6262 31.8015 75.5841 31.9033 75.5092 31.9783C75.4343 32.0534 75.3327 32.0955 75.2268 32.0955Z" fill="white"/>
<path d="M94.102 28.1178C95.1721 29.8285 95.7773 31.7974 95.592 33.8269C95.4321 35.578 94.7151 37.2249 93.9313 38.7769C93.119 40.3852 92.2096 41.947 91.5454 43.6262C90.8161 45.4566 90.5467 47.4383 90.7606 49.3974C90.8919 50.6693 91.1481 51.924 91.3894 53.1784L92.1261 57.0075L92.7662 56.6342L82.1771 47.4624C81.8059 47.1409 81.2619 47.6814 81.6356 48.005L92.2246 57.1768C92.2852 57.2339 92.3627 57.2699 92.4454 57.2793C92.5281 57.2888 92.6116 57.2712 92.6835 57.2293C92.7554 57.1873 92.8119 57.1232 92.8446 57.0465C92.8772 56.9698 92.8842 56.8846 92.8646 56.8036C92.4318 54.5538 91.9205 52.3029 91.6035 50.0333C91.4212 48.8888 91.3956 47.7247 91.5274 46.5733C91.6571 45.6957 91.8873 44.8359 92.2135 44.0111C93.4835 40.6861 95.8623 37.7775 96.3209 34.1624C96.6082 31.8975 95.962 29.6467 94.7633 27.7305C94.5021 27.3131 93.8392 27.6978 94.102 28.1178Z" fill="#3F3D56"/>
<path d="M82.8467 44.1054L67.1864 45.9616L59.3562 46.8897C56.9708 47.1725 54.4848 47.5695 52.1012 47.0692C48.0884 46.2269 45.5967 42.5838 44.8129 38.7444C44.3277 36.3678 44.4994 33.8812 44.9076 31.5069C45.1253 30.2411 45.4125 28.9884 45.7228 27.7426C45.9994 26.6323 46.2057 25.4366 46.6837 24.3915C47.0651 23.5417 47.6326 22.7888 48.344 22.1887C49.0555 21.5887 49.8928 21.1569 50.7936 20.9253C51.3563 20.8098 51.9264 20.7341 52.4997 20.6988C53.1437 20.6341 53.7883 20.5745 54.4333 20.52C55.7234 20.4111 57.0149 20.3229 58.308 20.2555C58.9544 20.2217 59.6011 20.1932 60.248 20.1698C60.7394 20.1517 60.7417 19.3843 60.248 19.4024C57.5561 19.5011 54.8694 19.6881 52.1881 19.9633C51.0956 20.076 50.0857 20.239 49.0996 20.7516C48.2475 21.1981 47.4991 21.8199 46.9035 22.5763C46.2932 23.3566 45.8455 24.2518 45.587 25.2087C45.2345 26.4802 44.9147 27.7643 44.6229 29.0511C44.0346 31.6448 43.6118 34.3182 43.8082 36.9847C44.0988 40.9286 45.9833 45.1363 49.6408 47.014C51.8005 48.1227 54.2651 48.1724 56.6317 47.9607C59.271 47.7246 61.9029 47.3552 64.5342 47.0433L80.826 45.1123L82.8467 44.8728C83.3302 44.8155 83.336 44.0474 82.8467 44.1054Z" fill="#3F3D56"/>
</g>
<defs>
<clipPath id="clip0_89_838">
<rect width="161" height="120" fill="white"/>
</clipPath>
</defs>
</svg>
