<svg width="123" height="120" viewBox="0 0 123 120" fill="none" xmlns="http://www.w3.org/2000/svg">
<g clip-path="url(#clip0_89_1009)">
<path d="M77.9507 26.9876H45.077C44.3279 26.9885 43.6097 27.2888 43.08 27.8226C42.5502 28.3564 42.2523 29.0801 42.2513 29.8349V103.457L41.8746 103.573L33.8101 106.061C33.4279 106.179 33.0151 106.139 32.6623 105.95C32.3095 105.761 32.0455 105.438 31.9283 105.053L7.94027 26.0973C7.82353 25.7122 7.86332 25.2961 8.05089 24.9406C8.23846 24.585 8.55846 24.319 8.94057 24.201L21.3679 20.3666L57.395 9.25451L69.8222 5.42012C70.0113 5.36147 70.2101 5.34097 70.4071 5.35981C70.6041 5.37864 70.7954 5.43644 70.9702 5.52988C71.145 5.62333 71.2998 5.75059 71.4258 5.90439C71.5517 6.05818 71.6463 6.23549 71.7042 6.42617L77.8358 26.608L77.9507 26.9876Z" fill="#F2F2F2"/>
<path d="M85.1239 26.608L77.7339 2.28432C77.6109 1.87904 77.4099 1.50215 77.1424 1.17517C76.8748 0.848203 76.5459 0.577563 76.1745 0.378717C75.8031 0.179871 75.3965 0.0567161 74.9778 0.0162939C74.5592 -0.0241283 74.1367 0.0189745 73.7346 0.143135L56.2626 5.53216L20.2374 16.6462L2.76539 22.0371C1.95373 22.2883 1.27412 22.8536 0.875731 23.6092C0.47734 24.3647 0.392716 25.2487 0.640438 26.067L25.8981 109.195C26.0993 109.856 26.5054 110.434 27.0567 110.845C27.6079 111.256 28.2754 111.478 28.9612 111.479C29.2785 111.479 29.5941 111.431 29.8973 111.337L41.8744 107.643L42.2511 107.525V107.128L41.8744 107.244L29.7862 110.974C29.0698 111.194 28.296 111.119 27.6345 110.765C26.9731 110.411 26.478 109.807 26.2579 109.085L1.0022 25.955C0.893146 25.5976 0.855138 25.222 0.890351 24.8497C0.925563 24.4774 1.0333 24.1158 1.2074 23.7855C1.38151 23.4553 1.61855 23.1629 1.90496 22.9251C2.19137 22.6873 2.52152 22.5087 2.8765 22.3997L20.3485 17.0088L56.3738 5.89662L73.8458 0.505697C74.1151 0.422897 74.395 0.380679 74.6765 0.380414C75.2807 0.381781 75.8685 0.578048 76.354 0.940467C76.8394 1.30289 77.1969 1.81241 77.3741 2.39442L84.7302 26.608L84.8471 26.9877H85.2389L85.1239 26.608Z" fill="#3F3D56"/>
<path d="M23.6104 24.2631C23.2473 24.2628 22.8939 24.1453 22.602 23.9278C22.31 23.7103 22.0949 23.4043 21.9882 23.0546L19.5619 15.0684C19.4967 14.8539 19.474 14.6286 19.4953 14.4052C19.5165 14.1819 19.5812 13.965 19.6857 13.7668C19.7901 13.5687 19.9323 13.3932 20.1041 13.2505C20.2758 13.1077 20.4738 13.0005 20.6867 12.9348L53.8296 2.71032C54.2596 2.57812 54.724 2.62321 55.121 2.83569C55.518 3.04818 55.8151 3.4107 55.9471 3.84369L58.3735 11.8299C58.5046 12.2631 58.4598 12.7311 58.249 13.1311C58.0381 13.5311 57.6784 13.8305 57.2488 13.9636L24.1057 24.1881C23.9452 24.2377 23.7783 24.263 23.6104 24.2631Z" fill="#FF731D"/>
<path d="M36.3205 8.5334C38.4013 8.5334 40.0881 6.83368 40.0881 4.73698C40.0881 2.64027 38.4013 0.940552 36.3205 0.940552C34.2398 0.940552 32.553 2.64027 32.553 4.73698C32.553 6.83368 34.2398 8.5334 36.3205 8.5334Z" fill="#FF731D"/>
<path d="M36.3205 7.14091C37.6381 7.14091 38.7063 6.0646 38.7063 4.7369C38.7063 3.4092 37.6381 2.33289 36.3205 2.33289C35.0029 2.33289 33.9348 3.4092 33.9348 4.7369C33.9348 6.0646 35.0029 7.14091 36.3205 7.14091Z" fill="white"/>
<path d="M114.023 110.509H50.3515C49.9269 110.508 49.5199 110.338 49.2198 110.036C48.9196 109.733 48.7507 109.323 48.7502 108.895V32.0179C48.7507 31.5901 48.9196 31.18 49.2198 30.8775C49.5199 30.575 49.9269 30.4049 50.3515 30.4044H114.023C114.448 30.4049 114.854 30.5751 115.155 30.8775C115.455 31.18 115.624 31.5901 115.624 32.0179V108.895C115.624 109.323 115.455 109.733 115.155 110.036C114.854 110.338 114.448 110.508 114.023 110.509Z" fill="#E6E6E6"/>
<path d="M84.7304 26.6079H45.0769C44.228 26.6091 43.4141 26.9495 42.8138 27.5544C42.2135 28.1593 41.8757 28.9794 41.8745 29.8349V107.244L42.2513 107.128V29.8349C42.2522 29.08 42.5502 28.3563 43.0799 27.8225C43.6096 27.2888 44.3278 26.9885 45.0769 26.9876H84.8472L84.7304 26.6079ZM119.298 26.6079H45.0769C44.228 26.6091 43.4141 26.9495 42.8138 27.5544C42.2135 28.1593 41.8757 28.9794 41.8745 29.8349V116.773C41.8757 117.628 42.2135 118.449 42.8138 119.053C43.4141 119.658 44.228 119.999 45.0769 120H119.298C120.147 119.999 120.96 119.658 121.561 119.053C122.161 118.449 122.499 117.628 122.5 116.773V29.8349C122.499 28.9794 122.161 28.1593 121.561 27.5544C120.96 26.9495 120.147 26.6091 119.298 26.6079ZM122.123 116.773C122.122 117.528 121.824 118.252 121.295 118.785C120.765 119.319 120.047 119.619 119.298 119.62H45.0769C44.3278 119.619 43.6096 119.319 43.0799 118.785C42.5502 118.252 42.2522 117.528 42.2513 116.773V29.8349C42.2522 29.08 42.5502 28.3563 43.0799 27.8225C43.6096 27.2888 44.3278 26.9885 45.0769 26.9876H119.298C120.047 26.9885 120.765 27.2888 121.295 27.8225C121.824 28.3563 122.122 29.08 122.123 29.8349V116.773Z" fill="#3F3D56"/>
<path d="M99.518 34.9601H64.8565C64.407 34.9596 63.9761 34.7794 63.6583 34.4591C63.3404 34.1389 63.1616 33.7046 63.1611 33.2517V24.8996C63.1616 24.4466 63.3404 24.0124 63.6583 23.6921C63.9761 23.3718 64.407 23.1917 64.8565 23.1912H99.518C99.9675 23.1917 100.398 23.3718 100.716 23.6921C101.034 24.0124 101.213 24.4466 101.213 24.8996V33.2517C101.213 33.7046 101.034 34.1389 100.716 34.4591C100.398 34.7794 99.9675 34.9596 99.518 34.9601Z" fill="#FF731D"/>
<path d="M82.1872 23.7607C84.268 23.7607 85.9548 22.061 85.9548 19.9643C85.9548 17.8676 84.268 16.1678 82.1872 16.1678C80.1065 16.1678 78.4197 17.8676 78.4197 19.9643C78.4197 22.061 80.1065 23.7607 82.1872 23.7607Z" fill="#FF731D"/>
<path d="M82.1874 22.2766C83.4547 22.2766 84.4822 21.2413 84.4822 19.9642C84.4822 18.6871 83.4547 17.6519 82.1874 17.6519C80.92 17.6519 79.8926 18.6871 79.8926 19.9642C79.8926 21.2413 80.92 22.2766 82.1874 22.2766Z" fill="white"/>
</g>
<defs>
<clipPath id="clip0_89_1009">
<rect width="122" height="120" fill="white" transform="translate(0.5)"/>
</clipPath>
</defs>
</svg>
