<svg width="201" height="209" viewBox="0 0 201 209" fill="none" xmlns="http://www.w3.org/2000/svg">
<g clip-path="url(#clip0_130_2312)">
<path d="M140.006 25.4954L139.623 25.897L165.914 50.8757L166.298 50.474L140.006 25.4954Z" fill="#E6E6E6"/>
<path d="M166.339 47.7654L165.784 47.7989L165.952 50.5279L163.212 50.4951L163.206 51.0497L166.543 51.0892L166.339 47.7654Z" fill="#E6E6E6"/>
<path d="M142.714 25.3208L142.708 25.8755L139.969 25.8427L140.136 28.5716L139.581 28.6051L139.378 25.281L142.714 25.3208Z" fill="#E6E6E6"/>
<path d="M152.96 41.2352C154.648 41.2352 156.016 39.8698 156.016 38.1855C156.016 36.5012 154.648 35.1358 152.96 35.1358C151.272 35.1358 149.904 36.5012 149.904 38.1855C149.904 39.8698 151.272 41.2352 152.96 41.2352Z" fill="#E6E6E6"/>
<path d="M61.5501 25.4954L35.2583 50.4741L35.6415 50.8757L61.9333 25.897L61.5501 25.4954Z" fill="#E6E6E6"/>
<path d="M35.0129 51.0892L38.35 51.0497L38.3437 50.4951L35.604 50.5279L35.7716 47.7989L35.2164 47.7654L35.0129 51.0892Z" fill="#E6E6E6"/>
<path d="M62.1778 25.281L61.9747 28.6051L61.4195 28.5716L61.5867 25.8427L58.847 25.8755L58.8411 25.3208L62.1778 25.281Z" fill="#E6E6E6"/>
<path d="M48.5957 41.2352C50.2835 41.2352 51.6518 39.8698 51.6518 38.1855C51.6518 36.5012 50.2835 35.1358 48.5957 35.1358C46.9078 35.1358 45.5396 36.5012 45.5396 38.1855C45.5396 39.8698 46.9078 41.2352 48.5957 41.2352Z" fill="#E6E6E6"/>
<path d="M123.56 63.2118H77.4402C76.7772 63.2111 76.1417 62.948 75.6729 62.4802C75.2041 62.0124 74.9405 61.3782 74.9397 60.7166V2.4952C74.9405 1.83366 75.2041 1.19944 75.6729 0.731663C76.1417 0.263884 76.7772 0.000753357 77.4402 0H123.56C124.223 0.000753357 124.859 0.263884 125.327 0.731663C125.796 1.19944 126.06 1.83366 126.06 2.4952V60.7166C126.06 61.3782 125.796 62.0124 125.327 62.4802C124.859 62.948 124.223 63.2111 123.56 63.2118ZM77.4402 0.554491C76.9245 0.555069 76.4302 0.759721 76.0656 1.12355C75.701 1.48738 75.4959 1.98067 75.4953 2.4952V60.7166C75.4959 61.2312 75.701 61.7245 76.0656 62.0883C76.4302 62.4521 76.9245 62.6568 77.4402 62.6573H123.56C124.076 62.6568 124.57 62.4521 124.935 62.0883C125.299 61.7245 125.504 61.2312 125.505 60.7166V2.4952C125.504 1.98067 125.299 1.48738 124.935 1.12355C124.57 0.759721 124.076 0.555069 123.56 0.554491H77.4402Z" fill="#3F3D56"/>
<path d="M96.6636 27.9856H86.5117C86.1802 27.9852 85.8624 27.8537 85.6281 27.6198C85.3937 27.3859 85.2618 27.0688 85.2615 26.738V14.7833C85.2618 14.4525 85.3937 14.1354 85.6281 13.9015C85.8624 13.6676 86.1802 13.536 86.5117 13.5357H96.6636C96.9951 13.536 97.3129 13.6676 97.5473 13.9015C97.7817 14.1354 97.9135 14.4525 97.9139 14.7833V26.738C97.9135 27.0687 97.7817 27.3859 97.5473 27.6198C97.3129 27.8537 96.9951 27.9852 96.6636 27.9856Z" fill="#FF731D"/>
<path d="M116.389 33.5305H106.238C105.906 33.5301 105.588 33.3985 105.354 33.1646C105.12 32.9308 104.988 32.6136 104.987 32.2829V20.3282C104.988 19.9974 105.12 19.6803 105.354 19.4464C105.588 19.2125 105.906 19.0809 106.238 19.0806H116.389C116.721 19.0809 117.039 19.2125 117.273 19.4464C117.507 19.6803 117.639 19.9974 117.64 20.3282V32.2829C117.639 32.6136 117.507 32.9308 117.273 33.1646C117.039 33.3985 116.721 33.5301 116.389 33.5305Z" fill="#CCCCCC"/>
<path d="M100.553 50.4424H90.4011C90.0697 50.442 89.7519 50.3105 89.5175 50.0766C89.2831 49.8427 89.1512 49.5256 89.1509 49.1948V37.2401C89.1512 36.9093 89.2831 36.5922 89.5175 36.3583C89.7519 36.1244 90.0697 35.9929 90.4011 35.9925H100.553C100.885 35.9929 101.202 36.1244 101.437 36.3583C101.671 36.5922 101.803 36.9093 101.803 37.2401V49.1948C101.803 49.5256 101.671 49.8427 101.437 50.0766C101.202 50.3105 100.885 50.442 100.553 50.4424Z" fill="#FF6584"/>
<path d="M197.999 123.078H151.88C151.217 123.077 150.581 122.814 150.112 122.346C149.644 121.878 149.38 121.244 149.379 120.583V62.3611C149.38 61.6996 149.644 61.0654 150.112 60.5976C150.581 60.1298 151.217 59.8667 151.88 59.8659H197.999C198.662 59.8667 199.298 60.1298 199.767 60.5976C200.236 61.0654 200.499 61.6996 200.5 62.3611V120.583C200.499 121.244 200.236 121.878 199.767 122.346C199.298 122.814 198.662 123.077 197.999 123.078ZM151.88 60.4204C151.364 60.421 150.87 60.6257 150.505 60.9895C150.14 61.3533 149.935 61.8466 149.935 62.3611V120.583C149.935 121.097 150.14 121.59 150.505 121.954C150.87 122.318 151.364 122.523 151.88 122.523H197.999C198.515 122.523 199.009 122.318 199.374 121.954C199.739 121.59 199.944 121.097 199.944 120.583V62.3611C199.944 61.8466 199.739 61.3533 199.374 60.9895C199.009 60.6257 198.515 60.421 197.999 60.4204H151.88Z" fill="#3F3D56"/>
<path d="M182.858 72.7578H167.021C166.727 72.7578 166.444 72.641 166.236 72.433C166.027 72.225 165.91 71.943 165.91 71.6488C165.91 71.3547 166.027 71.0726 166.236 70.8647C166.444 70.6567 166.727 70.5399 167.021 70.5399H182.858C183.153 70.5399 183.435 70.6567 183.644 70.8647C183.852 71.0726 183.969 71.3547 183.969 71.6488C183.969 71.943 183.852 72.225 183.644 72.433C183.435 72.641 183.153 72.7578 182.858 72.7578Z" fill="#FF731D"/>
<path d="M190.637 83.2932H159.242C159.096 83.2934 158.951 83.2649 158.816 83.2093C158.681 83.1537 158.558 83.072 158.455 82.969C158.352 82.866 158.27 82.7437 158.214 82.609C158.158 82.4743 158.129 82.33 158.129 82.1842C158.129 82.0384 158.158 81.894 158.214 81.7593C158.27 81.6247 158.352 81.5023 158.455 81.3993C158.558 81.2963 158.681 81.2147 158.816 81.1591C158.951 81.1034 159.096 81.0749 159.242 81.0752H190.637C190.783 81.0749 190.928 81.1034 191.063 81.1591C191.198 81.2147 191.321 81.2963 191.424 81.3993C191.527 81.5023 191.61 81.6247 191.665 81.7593C191.721 81.894 191.75 82.0384 191.75 82.1842C191.75 82.33 191.721 82.4743 191.665 82.609C191.61 82.7437 191.527 82.866 191.424 82.969C191.321 83.072 191.198 83.1537 191.063 83.2093C190.928 83.2649 190.783 83.2934 190.637 83.2932Z" fill="#CCCCCC"/>
<path d="M190.637 89.1153H159.242C159.096 89.1155 158.951 89.087 158.816 89.0314C158.681 88.9758 158.558 88.8942 158.455 88.7912C158.352 88.6882 158.27 88.5658 158.214 88.4311C158.158 88.2965 158.129 88.1521 158.129 88.0063C158.129 87.8605 158.158 87.7162 158.214 87.5815C158.27 87.4468 158.352 87.3245 158.455 87.2215C158.558 87.1185 158.681 87.0368 158.816 86.9812C158.951 86.9256 159.096 86.8971 159.242 86.8973H190.637C190.783 86.8971 190.928 86.9256 191.063 86.9812C191.198 87.0368 191.321 87.1185 191.424 87.2215C191.527 87.3245 191.61 87.4468 191.665 87.5815C191.721 87.7162 191.75 87.8605 191.75 88.0063C191.75 88.1521 191.721 88.2965 191.665 88.4311C191.61 88.5658 191.527 88.6882 191.424 88.7912C191.321 88.8942 191.198 88.9758 191.063 89.0314C190.928 89.087 190.783 89.1155 190.637 89.1153Z" fill="#CCCCCC"/>
<path d="M190.637 94.9374H159.242C159.096 94.9377 158.951 94.9092 158.816 94.8536C158.681 94.798 158.558 94.7163 158.455 94.6133C158.352 94.5103 158.27 94.388 158.214 94.2533C158.158 94.1186 158.129 93.9743 158.129 93.8285C158.129 93.6827 158.158 93.5383 158.214 93.4036C158.27 93.269 158.352 93.1466 158.455 93.0436C158.558 92.9406 158.681 92.859 158.816 92.8034C158.951 92.7477 159.096 92.7192 159.242 92.7195H190.637C190.783 92.7192 190.928 92.7477 191.063 92.8034C191.198 92.859 191.321 92.9406 191.424 93.0436C191.527 93.1466 191.61 93.269 191.665 93.4036C191.721 93.5383 191.75 93.6827 191.75 93.8285C191.75 93.9743 191.721 94.1186 191.665 94.2533C191.61 94.388 191.527 94.5103 191.424 94.6133C191.321 94.7163 191.198 94.798 191.063 94.8536C190.928 94.9092 190.783 94.9377 190.637 94.9374Z" fill="#CCCCCC"/>
<path d="M190.637 100.76H159.242C159.096 100.76 158.951 100.731 158.816 100.676C158.681 100.62 158.558 100.538 158.455 100.435C158.352 100.332 158.27 100.21 158.214 100.075C158.158 99.9407 158.129 99.7964 158.129 99.6506C158.129 99.5048 158.158 99.3604 158.214 99.2258C158.27 99.0911 158.352 98.9687 158.455 98.8657C158.558 98.7627 158.681 98.6811 158.816 98.6255C158.951 98.5698 159.096 98.5413 159.242 98.5416H190.637C190.783 98.5413 190.928 98.5698 191.063 98.6255C191.198 98.6811 191.321 98.7627 191.424 98.8657C191.527 98.9687 191.61 99.0911 191.665 99.2258C191.721 99.3604 191.75 99.5048 191.75 99.6506C191.75 99.7964 191.721 99.9407 191.665 100.075C191.61 100.21 191.527 100.332 191.424 100.435C191.321 100.538 191.198 100.62 191.063 100.676C190.928 100.731 190.783 100.76 190.637 100.76Z" fill="#CCCCCC"/>
<path d="M190.637 106.582H159.242C159.096 106.582 158.951 106.553 158.816 106.498C158.681 106.442 158.558 106.361 158.455 106.258C158.352 106.155 158.27 106.032 158.214 105.898C158.158 105.763 158.129 105.619 158.129 105.473C158.129 105.327 158.158 105.183 158.214 105.048C158.27 104.913 158.352 104.791 158.455 104.688C158.558 104.585 158.681 104.503 158.816 104.448C158.951 104.392 159.096 104.363 159.242 104.364H190.637C190.783 104.363 190.928 104.392 191.063 104.448C191.198 104.503 191.321 104.585 191.424 104.688C191.527 104.791 191.61 104.913 191.665 105.048C191.721 105.183 191.75 105.327 191.75 105.473C191.75 105.619 191.721 105.763 191.665 105.898C191.61 106.032 191.527 106.155 191.424 106.258C191.321 106.361 191.198 106.442 191.063 106.498C190.928 106.553 190.783 106.582 190.637 106.582Z" fill="#CCCCCC"/>
<path d="M190.637 112.404H159.242C159.096 112.404 158.951 112.376 158.816 112.32C158.681 112.264 158.558 112.183 158.455 112.08C158.352 111.977 158.27 111.854 158.214 111.72C158.158 111.585 158.129 111.441 158.129 111.295C158.129 111.149 158.158 111.005 158.214 110.87C158.27 110.735 158.352 110.613 158.455 110.51C158.558 110.407 158.681 110.325 158.816 110.27C158.951 110.214 159.096 110.186 159.242 110.186H190.637C190.783 110.186 190.928 110.214 191.063 110.27C191.198 110.325 191.321 110.407 191.424 110.51C191.527 110.613 191.61 110.735 191.665 110.87C191.721 111.005 191.75 111.149 191.75 111.295C191.75 111.441 191.721 111.585 191.665 111.72C191.61 111.854 191.527 111.977 191.424 112.08C191.321 112.183 191.198 112.264 191.063 112.32C190.928 112.376 190.783 112.404 190.637 112.404Z" fill="#CCCCCC"/>
<path d="M49.1203 123.078H3.00047C2.33754 123.077 1.70197 122.814 1.2332 122.346C0.764436 121.878 0.500754 121.244 0.5 120.583V62.3611C0.500754 61.6996 0.764436 61.0654 1.2332 60.5976C1.70197 60.1298 2.33754 59.8667 3.00047 59.8659H49.1203C49.7833 59.8667 50.4188 60.1298 50.8876 60.5976C51.3564 61.0654 51.6201 61.6996 51.6208 62.3611V120.583C51.6201 121.244 51.3564 121.878 50.8876 122.346C50.4188 122.814 49.7833 123.077 49.1203 123.078ZM3.00047 60.4204C2.48485 60.421 1.99052 60.6257 1.62592 60.9895C1.26133 61.3533 1.05624 61.8466 1.05566 62.3611V120.583C1.05624 121.097 1.26133 121.59 1.62592 121.954C1.99052 122.318 2.48485 122.523 3.00047 122.523H49.1203C49.636 122.523 50.1303 122.318 50.4949 121.954C50.8595 121.59 51.0646 121.097 51.0652 120.583V62.3611C51.0646 61.8466 50.8595 61.3533 50.4949 60.9895C50.1303 60.6257 49.636 60.421 49.1203 60.4204H3.00047Z" fill="#3F3D56"/>
<path d="M41.8061 73.6121H27.9145C27.6198 73.6121 27.3371 73.4952 27.1287 73.2872C26.9203 73.0793 26.8032 72.7972 26.8032 72.5031C26.8032 72.209 26.9203 71.9269 27.1287 71.7189C27.3371 71.5109 27.6198 71.3941 27.9145 71.3941H41.8061C42.1008 71.3941 42.3835 71.5109 42.5919 71.7189C42.8003 71.9269 42.9174 72.209 42.9174 72.5031C42.9174 72.7972 42.8003 73.0793 42.5919 73.2872C42.3835 73.4952 42.1008 73.6121 41.8061 73.6121Z" fill="#3F3D56"/>
<path d="M41.8061 79.4342H27.9145C27.6198 79.4342 27.3371 79.3173 27.1287 79.1094C26.9203 78.9014 26.8032 78.6193 26.8032 78.3252C26.8032 78.0311 26.9203 77.749 27.1287 77.541C27.3371 77.3331 27.6198 77.2162 27.9145 77.2162H41.8061C42.1008 77.2162 42.3835 77.3331 42.5919 77.541C42.8003 77.749 42.9174 78.0311 42.9174 78.3252C42.9174 78.6193 42.8003 78.9014 42.5919 79.1094C42.3835 79.3173 42.1008 79.4342 41.8061 79.4342Z" fill="#3F3D56"/>
<path d="M20.7867 82.7493H10.6348C10.3033 82.749 9.9855 82.6174 9.75112 82.3835C9.51673 82.1496 9.38489 81.8325 9.38452 81.5017V69.547C9.38489 69.2163 9.51673 68.8992 9.75112 68.6653C9.9855 68.4314 10.3033 68.2998 10.6348 68.2994H20.7867C21.1182 68.2998 21.436 68.4314 21.6703 68.6653C21.9047 68.8992 22.0366 69.2163 22.0369 69.547V81.5017C22.0366 81.8325 21.9047 82.1496 21.6703 82.3835C21.436 82.6174 21.1182 82.749 20.7867 82.7493Z" fill="#FF731D"/>
<path d="M41.7098 91.3557H10.3149C10.1688 91.356 10.0241 91.3275 9.88903 91.2718C9.75397 91.2162 9.63124 91.1346 9.52784 91.0316C9.42444 90.9286 9.34241 90.8062 9.28644 90.6716C9.23047 90.5369 9.20166 90.3925 9.20166 90.2467C9.20166 90.1009 9.23047 89.9566 9.28644 89.8219C9.34241 89.6872 9.42444 89.5649 9.52784 89.4619C9.63124 89.3589 9.75397 89.2772 9.88903 89.2216C10.0241 89.166 10.1688 89.1375 10.3149 89.1378H41.7098C41.8559 89.1375 42.0006 89.166 42.1356 89.2216C42.2707 89.2772 42.3934 89.3589 42.4968 89.4619C42.6002 89.5649 42.6823 89.6872 42.7382 89.8219C42.7942 89.9566 42.823 90.1009 42.823 90.2467C42.823 90.3925 42.7942 90.5369 42.7382 90.6716C42.6823 90.8062 42.6002 90.9286 42.4968 91.0316C42.3934 91.1346 42.2707 91.2162 42.1356 91.2718C42.0006 91.3275 41.8559 91.356 41.7098 91.3557Z" fill="#CCCCCC"/>
<path d="M41.7098 97.1779H10.3149C10.1688 97.1781 10.0241 97.1496 9.88903 97.094C9.75397 97.0384 9.63124 96.9567 9.52784 96.8537C9.42444 96.7507 9.34241 96.6284 9.28644 96.4937C9.23047 96.359 9.20166 96.2147 9.20166 96.0689C9.20166 95.9231 9.23047 95.7787 9.28644 95.644C9.34241 95.5094 9.42444 95.387 9.52784 95.284C9.63124 95.181 9.75397 95.0994 9.88903 95.0438C10.0241 94.9882 10.1688 94.9596 10.3149 94.9599H41.7098C41.8559 94.9596 42.0006 94.9882 42.1356 95.0438C42.2707 95.0994 42.3934 95.181 42.4968 95.284C42.6002 95.387 42.6823 95.5094 42.7382 95.644C42.7942 95.7787 42.823 95.9231 42.823 96.0689C42.823 96.2147 42.7942 96.359 42.7382 96.4937C42.6823 96.6284 42.6002 96.7507 42.4968 96.8537C42.3934 96.9567 42.2707 97.0384 42.1356 97.094C42.0006 97.1496 41.8559 97.1781 41.7098 97.1779Z" fill="#CCCCCC"/>
<path d="M41.7098 103H10.3149C10.1688 103 10.0241 102.972 9.88903 102.916C9.75397 102.861 9.63124 102.779 9.52784 102.676C9.42444 102.573 9.34241 102.451 9.28644 102.316C9.23047 102.181 9.20166 102.037 9.20166 101.891C9.20166 101.745 9.23047 101.601 9.28644 101.466C9.34241 101.332 9.42444 101.209 9.52784 101.106C9.63124 101.003 9.75397 100.922 9.88903 100.866C10.0241 100.81 10.1688 100.782 10.3149 100.782H41.7098C41.8559 100.782 42.0006 100.81 42.1356 100.866C42.2707 100.922 42.3934 101.003 42.4968 101.106C42.6002 101.209 42.6823 101.332 42.7382 101.466C42.7942 101.601 42.823 101.745 42.823 101.891C42.823 102.037 42.7942 102.181 42.7382 102.316C42.6823 102.451 42.6002 102.573 42.4968 102.676C42.3934 102.779 42.2707 102.861 42.1356 102.916C42.0006 102.972 41.8559 103 41.7098 103Z" fill="#CCCCCC"/>
<path d="M41.7098 108.822H10.3149C10.1688 108.822 10.0241 108.794 9.88903 108.738C9.75397 108.683 9.63124 108.601 9.52784 108.498C9.42444 108.395 9.34241 108.273 9.28644 108.138C9.23047 108.003 9.20166 107.859 9.20166 107.713C9.20166 107.567 9.23047 107.423 9.28644 107.288C9.34241 107.154 9.42444 107.031 9.52784 106.928C9.63124 106.825 9.75397 106.744 9.88903 106.688C10.0241 106.632 10.1688 106.604 10.3149 106.604H41.7098C41.8559 106.604 42.0006 106.632 42.1356 106.688C42.2707 106.744 42.3934 106.825 42.4968 106.928C42.6002 107.031 42.6823 107.154 42.7382 107.288C42.7942 107.423 42.823 107.567 42.823 107.713C42.823 107.859 42.7942 108.003 42.7382 108.138C42.6823 108.273 42.6002 108.395 42.4968 108.498C42.3934 108.601 42.2707 108.683 42.1356 108.738C42.0006 108.794 41.8559 108.822 41.7098 108.822Z" fill="#CCCCCC"/>
<path d="M41.7098 114.644H10.3149C10.1688 114.645 10.0241 114.616 9.88903 114.56C9.75397 114.505 9.63124 114.423 9.52784 114.32C9.42444 114.217 9.34241 114.095 9.28644 113.96C9.23047 113.825 9.20166 113.681 9.20166 113.535C9.20166 113.39 9.23047 113.245 9.28644 113.11C9.34241 112.976 9.42444 112.853 9.52784 112.75C9.63124 112.647 9.75397 112.566 9.88903 112.51C10.0241 112.455 10.1688 112.426 10.3149 112.426H41.7098C41.8559 112.426 42.0006 112.455 42.1356 112.51C42.2707 112.566 42.3934 112.647 42.4968 112.75C42.6002 112.853 42.6823 112.976 42.7382 113.11C42.7942 113.245 42.823 113.39 42.823 113.535C42.823 113.681 42.7942 113.825 42.7382 113.96C42.6823 114.095 42.6002 114.217 42.4968 114.32C42.3934 114.423 42.2707 114.505 42.1356 114.56C42.0006 114.616 41.8559 114.645 41.7098 114.644Z" fill="#CCCCCC"/>
<path d="M66.5557 156.823V144.868C66.556 144.537 66.6879 144.22 66.9223 143.986C67.1566 143.752 67.4744 143.621 67.8059 143.62H77.9578C78.2893 143.621 78.6071 143.752 78.8415 143.986C79.0759 144.22 79.2077 144.537 79.2081 144.868V156.823C79.2077 157.153 79.0759 157.47 78.8415 157.704C78.6071 157.938 78.2893 158.07 77.9578 158.07H67.8059C67.4744 158.07 67.1566 157.938 66.9223 157.704C66.6879 157.47 66.556 157.153 66.5557 156.823Z" fill="#E6E6E6"/>
<path d="M70.2124 152.842V140.887C70.2128 140.556 70.3446 140.239 70.579 140.005C70.8134 139.771 71.1312 139.64 71.4626 139.639H81.6146C81.946 139.64 82.2638 139.771 82.4982 140.005C82.7326 140.239 82.8644 140.556 82.8648 140.887V152.842C82.8644 153.172 82.7326 153.489 82.4982 153.723C82.2638 153.957 81.946 154.089 81.6146 154.089H71.4626C71.1312 154.089 70.8134 153.957 70.579 153.723C70.3446 153.489 70.2128 153.172 70.2124 152.842Z" fill="#FF731D"/>
<path d="M115.721 149.016C115.339 148.796 115.01 148.495 114.757 148.134C114.505 147.773 114.334 147.362 114.258 146.928C114.182 146.494 114.202 146.049 114.317 145.624C114.432 145.199 114.639 144.804 114.924 144.468L111.777 121.515L118.332 121.836L119.361 144.224C119.896 144.738 120.223 145.431 120.281 146.17C120.339 146.909 120.123 147.643 119.674 148.234C119.225 148.824 118.575 149.23 117.847 149.375C117.118 149.519 116.362 149.391 115.721 149.016Z" fill="#A0616A"/>
<path d="M119.232 122.142C119.097 122.3 118.925 122.421 118.731 122.495L112.84 124.739C112.544 124.851 112.217 124.846 111.924 124.725C111.632 124.604 111.397 124.375 111.268 124.087L106.05 112.384C105.549 111.299 105.464 110.068 105.81 108.924C106.066 108.107 106.539 107.375 107.177 106.804C107.816 106.233 108.596 105.844 109.438 105.679C110.085 105.546 110.753 105.555 111.396 105.706C112.166 105.878 112.882 106.238 113.478 106.755C114.073 107.271 114.53 107.928 114.808 108.666L119.447 120.904C119.525 121.111 119.547 121.335 119.509 121.552C119.471 121.77 119.375 121.974 119.232 122.142Z" fill="#CCCCCC"/>
<path d="M88.5342 205.039H84.4584L82.9807 189.277L88.5349 189.352L88.5342 205.039Z" fill="#A0616A"/>
<path d="M81.5472 203.877H89.4076V208.815H76.5981C76.5981 208.167 76.7262 207.525 76.9749 206.925C77.2236 206.326 77.5881 205.782 78.0477 205.323C78.5073 204.865 79.0528 204.501 79.6533 204.253C80.2537 204.004 80.8973 203.877 81.5472 203.877Z" fill="#2F2E41"/>
<path d="M107.484 205.039H103.408L101.469 189.351L107.484 189.352L107.484 205.039Z" fill="#A0616A"/>
<path d="M100.497 203.877H108.357V208.815H95.5476C95.5476 208.167 95.6756 207.525 95.9243 206.925C96.173 206.326 96.5376 205.782 96.9972 205.323C97.4567 204.865 98.0023 204.501 98.6028 204.253C99.2032 204.004 99.8468 203.877 100.497 203.877Z" fill="#2F2E41"/>
<path d="M107.996 199.458L101.595 198.985C101.231 198.957 100.89 198.798 100.635 198.537C100.38 198.276 100.229 197.932 100.211 197.568L98.784 168.132C98.7703 167.849 98.6537 167.582 98.4561 167.379C98.2586 167.176 97.9937 167.052 97.7111 167.03C97.4285 167.009 97.1477 167.091 96.9213 167.261C96.695 167.431 96.5387 167.678 96.4818 167.955L90.5273 196.952C90.4536 197.309 90.2519 197.626 89.9601 197.845C89.6682 198.064 89.3064 198.169 88.9425 198.14L83.156 197.678C82.9577 197.662 82.7646 197.607 82.5879 197.516C82.4112 197.425 82.2545 197.299 82.1269 197.147C81.9994 196.995 81.9037 196.818 81.8453 196.629C81.7868 196.439 81.7669 196.239 81.7867 196.042L87.155 142.473C87.1759 142.263 87.241 142.061 87.346 141.878C87.4509 141.696 87.5934 141.537 87.764 141.414C87.9345 141.29 88.1294 141.204 88.3358 141.16C88.5421 141.117 88.7553 141.118 88.9613 141.163L109.376 145.591C109.714 145.665 110.016 145.853 110.23 146.124C110.445 146.395 110.559 146.732 110.553 147.078L109.603 197.997C109.595 198.387 109.435 198.759 109.156 199.033C108.877 199.307 108.502 199.461 108.11 199.462C108.072 199.462 108.035 199.46 107.996 199.458Z" fill="#2F2E41"/>
<path d="M102.396 97.6822C106.906 97.6822 110.561 94.0342 110.561 89.5341C110.561 85.0341 106.906 81.3861 102.396 81.3861C97.8867 81.3861 94.231 85.0341 94.231 89.5341C94.231 94.0342 97.8867 97.6822 102.396 97.6822Z" fill="#A0616A"/>
<path d="M89.7273 146.604C88.9422 145.901 88.3189 145.037 87.9003 144.071C87.4817 143.105 87.2778 142.06 87.3025 141.008C87.3025 129.297 97.4607 103.134 97.7792 102.317C97.8103 102.12 98.0783 102.036 99.4844 101.088C100.891 100.139 102.92 99.9933 105.515 100.655C105.779 100.722 106.019 100.86 106.209 101.054C106.4 101.248 106.533 101.491 106.595 101.755L107.078 102.451C107.12 102.628 107.203 102.792 107.32 102.931C107.437 103.069 107.585 103.178 107.752 103.25C109.845 104.129 116.495 108.185 114.229 123.45C112.124 137.63 111.27 145.969 111 148.897C110.968 149.244 110.815 149.569 110.568 149.816C110.321 150.062 109.995 150.214 109.646 150.245C108.621 150.337 106.86 150.459 104.763 150.459C99.9023 150.459 93.235 149.804 89.7273 146.604Z" fill="#CCCCCC"/>
<path d="M79.9704 142.265C79.7762 141.87 79.6713 141.437 79.6629 140.997C79.6545 140.556 79.743 140.12 79.9221 139.717C80.1011 139.315 80.3664 138.957 80.6992 138.668C81.032 138.379 81.4243 138.166 81.8484 138.045L92.0522 117.236L97.316 121.147L85.6691 140.31C85.8262 141.034 85.7115 141.791 85.3467 142.437C84.982 143.082 84.3925 143.572 83.6901 143.813C82.9877 144.054 82.221 144.03 81.5355 143.744C80.8499 143.459 80.2931 142.933 79.9704 142.265Z" fill="#A0616A"/>
<path d="M97.8924 121.901C97.6927 121.958 97.4819 121.963 97.2797 121.916L91.1354 120.504C90.8268 120.433 90.5572 120.247 90.382 119.983C90.2069 119.72 90.1396 119.4 90.1939 119.088L92.3955 106.47C92.5856 105.29 93.2022 104.22 94.1288 103.463C94.7975 102.927 95.5986 102.582 96.4476 102.462C97.2967 102.343 98.1622 102.455 98.9531 102.785C99.5645 103.035 100.114 103.414 100.564 103.897C101.108 104.468 101.501 105.165 101.707 105.925C101.913 106.685 101.926 107.485 101.744 108.252L98.7629 120.994C98.7122 121.209 98.6048 121.406 98.4517 121.566C98.2986 121.726 98.1055 121.841 97.8924 121.901Z" fill="#CCCCCC"/>
<path d="M100.484 96.896C100.087 96.4914 99.7936 95.9969 99.6292 95.4547C99.4649 94.9124 99.4345 94.3386 99.5405 93.782C99.8252 92.296 99.9925 91.3237 100.024 90.9699C100.133 89.7598 98.9067 88.7802 97.6937 88.6243C97.6466 88.6182 97.6073 88.6141 97.5744 88.6115C97.6053 88.6418 97.6385 88.6727 97.6677 88.7001C97.898 88.916 98.1849 89.1849 98.1167 89.4623C98.0756 89.6293 97.9227 89.7479 97.6491 89.8242C95.752 90.354 94.291 89.8676 93.0511 88.2927C92.7025 87.8453 92.463 87.3231 92.3513 86.7674C91.9071 84.5928 93.0906 82.7391 94.1617 81.5671C95.0449 80.6008 96.4767 79.4277 98.2821 79.3271C99.6862 79.2489 101.356 80.0552 101.856 81.5081C102.091 81.1595 102.405 80.8705 102.772 80.664C103.139 80.4575 103.549 80.3392 103.97 80.3184C104.929 80.2977 105.872 80.5595 106.683 81.0712C110.642 83.3343 112.343 88.7254 110.398 92.8441C109.175 95.4347 106.524 97.3634 103.48 97.8774C103.289 97.9097 103.097 97.9259 102.903 97.926C102.451 97.9253 102.004 97.8337 101.589 97.6568C101.173 97.4798 100.798 97.221 100.484 96.896Z" fill="#2F2E41"/>
<path d="M62.195 209H127.022C127.11 209 127.195 208.965 127.257 208.903C127.32 208.841 127.355 208.756 127.355 208.668C127.355 208.58 127.32 208.496 127.257 208.434C127.195 208.371 127.11 208.336 127.022 208.336H62.195C62.1068 208.336 62.0223 208.371 61.9599 208.434C61.8976 208.496 61.8625 208.58 61.8625 208.668C61.8625 208.756 61.8976 208.841 61.9599 208.903C62.0223 208.965 62.1068 209 62.195 209Z" fill="#3F3D56"/>
</g>
<defs>
<clipPath id="clip0_130_2312">
<rect width="200" height="209" fill="white" transform="translate(0.5)"/>
</clipPath>
</defs>
</svg>
