<svg width="265" height="166" viewBox="0 0 265 166" fill="none" xmlns="http://www.w3.org/2000/svg">
<path d="M91.5686 9.64922C91.5686 13.8267 98.2644 17.2132 93.605 17.2132C88.9456 17.2132 85.1685 13.8267 85.1685 9.64922C85.1685 5.47173 88.9456 2.08521 93.605 2.08521C98.2644 2.08521 91.5686 5.47173 91.5686 9.64922Z" fill="#ECC94B"/>
<path d="M157.73 6L158.862 9.4844H162.526L159.562 11.6379L160.694 15.1223L157.73 12.9688L154.766 15.1223L155.898 11.6379L152.934 9.4844H156.598L157.73 6Z" fill="#ECC94B"/>
<path d="M33.8784 79.6552C33.8784 79.6552 44.6265 74.3019 47.0648 77.1078C48.4043 78.6493 49.4159 80.5163 48.2162 82.0332C47.2914 83.2025 45.9563 83.3516 44.3919 83.0768C41.0791 82.495 41.1293 77.8946 42.4591 75.0454C44.2952 71.1116 54.0417 73.4335 54.0417 73.4335" stroke="#48BB78" stroke-width="2.01707"/>
<circle cx="228.717" cy="74.2923" r="5.88312" fill="#C6CCD5"/>
<path d="M55.5474 135.991L56.3844 128.771L62.2199 132.47L62.8851 126.414L68.2079 130.08L69.8656 123.533" stroke="#718096" stroke-width="1.68089"/>
<path d="M192.801 21.9249C192.801 21.9249 191.982 17.0642 194.331 16.0954C196.303 15.2815 198.014 18.8808 199.635 17.5759C201.277 16.2541 197.178 14.1601 198.513 12.5791C199.918 10.9152 204.429 12.5791 204.429 12.5791" stroke="#718096" stroke-width="2.01707"/>
<path d="M32.4552 14.6397L54.0615 25.396L48.6613 32.7602L32.4552 14.6397Z" fill="#718096"/>
<circle cx="223.846" cy="94.3126" r="2.52134" fill="#C6CCD5"/>
<path d="M199.616 127.502C202.387 127.781 205.08 123.565 204.769 126.656C204.458 129.747 201.96 132.026 199.189 131.747C196.418 131.468 194.424 128.737 194.735 125.646C195.046 122.555 196.845 127.223 199.616 127.502Z" fill="#718096"/>
<path d="M208.61 38.9929L210.497 44.8003H216.603L211.663 48.3894L213.55 54.1967L208.61 50.6076L203.67 54.1967L205.557 48.3894L200.617 44.8003H206.723L208.61 38.9929Z" fill="#48BB78"/>
<rect x="82.2998" y="25.823" width="100" height="100" rx="50" fill="#48BB78"/>
<g filter="url(#filter0_d_130_2539)">
<rect x="102.3" y="45.823" width="60" height="60" rx="30" fill="white" shape-rendering="crispEdges"/>
<path fill-rule="evenodd" clip-rule="evenodd" d="M143.184 68.6891C143.672 69.1773 143.672 69.9687 143.184 70.4569L130.684 82.9569C130.196 83.445 129.404 83.445 128.916 82.9569L122.666 76.7069C122.178 76.2187 122.178 75.4273 122.666 74.9391C123.154 74.451 123.946 74.451 124.434 74.9391L129.8 80.3052L141.416 68.6891C141.904 68.201 142.696 68.201 143.184 68.6891Z" fill="#3B3C36"/>
</g>
<defs>
<filter id="filter0_d_130_2539" x="62.2998" y="25.823" width="140" height="140" filterUnits="userSpaceOnUse" color-interpolation-filters="sRGB">
<feFlood flood-opacity="0" result="BackgroundImageFix"/>
<feColorMatrix in="SourceAlpha" type="matrix" values="0 0 0 0 0 0 0 0 0 0 0 0 0 0 0 0 0 0 127 0" result="hardAlpha"/>
<feOffset dy="20"/>
<feGaussianBlur stdDeviation="20"/>
<feComposite in2="hardAlpha" operator="out"/>
<feColorMatrix type="matrix" values="0 0 0 0 0 0 0 0 0 0 0 0 0 0 0 0 0 0 0.3 0"/>
<feBlend mode="normal" in2="BackgroundImageFix" result="effect1_dropShadow_130_2539"/>
<feBlend mode="normal" in="SourceGraphic" in2="effect1_dropShadow_130_2539" result="shape"/>
</filter>
</defs>
</svg>
