<svg width="161" height="108" viewBox="0 0 161 108" fill="none" xmlns="http://www.w3.org/2000/svg">
<g clip-path="url(#clip0_453_1779)">
<path d="M57.7507 62.0794C63.2682 52.3731 73.7929 44.9203 84.9342 45.6383C76.716 54.5755 71.9239 66.1317 71.4055 78.2622C71.2226 82.9412 71.5063 88.1644 68.3997 91.6679C66.4668 93.8479 63.5123 94.9037 60.6073 95.1252C57.7022 95.3466 54.7978 94.8217 51.9315 94.2991L51.2362 94.5125C50.9715 83.3507 52.2332 71.7857 57.7507 62.0794Z" fill="#F0F0F0"/>
<path d="M84.9509 45.872C76.712 49.8384 69.6869 56.4626 65.3743 64.5414C64.442 66.288 63.6482 68.1409 63.3019 70.1001C62.9555 72.0601 63.1975 73.9259 63.8669 75.7875C64.4789 77.4894 65.302 79.1594 65.4896 80.9804C65.6875 82.8999 64.9812 84.6946 63.71 86.119C62.1546 87.8617 60.0658 88.9417 57.9864 89.9268C55.6776 91.0206 53.2622 92.1201 51.627 94.1615C51.4288 94.4088 51.0567 94.0869 51.2545 93.8399C54.0996 90.2883 58.9696 89.6206 62.3467 86.7596C63.9225 85.4246 65.1056 83.6066 65.0309 81.4764C64.9657 79.6136 64.1184 77.8908 63.4838 76.173C62.8175 74.3692 62.4852 72.5556 62.7242 70.6325C62.9686 68.6653 63.6916 66.7774 64.5753 65.0146C66.568 61.0391 69.2952 57.3893 72.4193 54.2342C76.0098 50.6076 80.1942 47.6219 84.7915 45.4064C85.0761 45.2694 85.2336 45.7359 84.9509 45.872Z" fill="white"/>
<path d="M66.6375 61.8414C65.3745 60.9178 64.4808 59.5753 64.1162 58.0537C63.7516 56.532 63.9397 54.9303 64.6469 53.5346C64.791 53.2526 65.2359 53.4633 65.0916 53.7456C64.4306 55.0441 64.2555 56.5361 64.598 57.9524C64.9404 59.3687 65.7778 60.6159 66.959 61.4689C67.2155 61.6546 66.8925 62.026 66.6375 61.8414Z" fill="white"/>
<path d="M63.443 74.9654C66.6078 74.503 69.4822 72.8646 71.4928 70.3769C71.6918 70.1303 72.064 70.4521 71.8652 70.6984C69.7681 73.2833 66.7735 74.9822 63.479 75.4562C63.1649 75.5012 63.1306 75.0101 63.443 74.9654Z" fill="white"/>
<path d="M76.2529 51.2131C76.6672 51.6723 77.189 52.0214 77.7715 52.2291C78.354 52.4367 78.9789 52.4965 79.5902 52.4029C79.9035 52.354 79.9375 52.8451 79.6263 52.8937C78.9504 52.9939 78.2603 52.9271 77.6162 52.6991C76.9721 52.471 76.3937 52.0887 75.9314 51.5856C75.8839 51.5418 75.8548 51.4816 75.85 51.4171C75.8453 51.3527 75.8653 51.2888 75.9059 51.2386C75.9488 51.1895 76.0092 51.1592 76.0742 51.1545C76.1392 51.1497 76.2034 51.1708 76.2529 51.2131Z" fill="white"/>
<path d="M107.102 76.258C106.907 76.2942 106.713 76.3303 106.516 76.3701C103.9 76.8692 101.329 77.58 98.8278 78.4955C98.6333 78.5632 98.4372 78.6347 98.2451 78.7079C92.2432 80.9777 86.7148 84.3422 81.941 88.6302C80.043 90.3383 78.2777 92.1883 76.6603 94.1642C74.4268 96.8931 72.2223 100.03 69.3037 101.809C69.0013 101.998 68.6874 102.168 68.364 102.318L51.5507 95.3443C51.5204 95.3092 51.4884 95.278 51.458 95.2428L50.7739 94.9951C50.8502 94.8874 50.9317 94.7773 51.008 94.6695C51.052 94.6069 51.0997 94.5457 51.1437 94.483C51.1742 94.4417 51.2049 94.4005 51.2301 94.3615C51.2402 94.3477 51.2505 94.334 51.2591 94.3241C51.2842 94.2851 51.3118 94.2515 51.3353 94.2163C51.7889 93.5997 52.2476 92.9851 52.7114 92.3727C52.713 92.3688 52.713 92.3689 52.7184 92.3666C56.2643 87.7092 60.2303 83.3069 64.7382 79.6465C64.8739 79.5364 65.011 79.4224 65.1543 79.3155C67.1955 77.6769 69.3671 76.2078 71.6476 74.923C72.8986 74.2235 74.1842 73.5878 75.4995 73.0182C78.9007 71.5532 82.5112 70.6324 86.1987 70.2894C93.5496 69.6068 101.037 71.2828 106.675 75.901C106.819 76.0192 106.96 76.136 107.102 76.258Z" fill="#F0F0F0"/>
<path d="M106.976 76.4557C98.0095 74.6621 88.4123 75.7214 80.1052 79.5753C78.3092 80.4085 76.5599 81.41 75.1039 82.7658C73.6473 84.1222 72.7172 85.7576 72.1309 87.6471C71.5949 89.3744 71.2467 91.2034 70.3002 92.7704C69.3026 94.422 67.6582 95.4298 65.7856 95.8017C63.4945 96.2567 61.1765 95.8613 58.9232 95.3959C56.4213 94.8791 53.8307 94.3027 51.2961 94.9481C50.989 95.0263 50.8856 94.5451 51.1922 94.4671C55.6021 93.3443 59.8925 95.7434 64.3114 95.4924C66.3734 95.3753 68.4125 94.636 69.6354 92.8902C70.7047 91.3636 71.0654 89.4779 71.593 87.7242C72.1469 85.8828 72.9735 84.2347 74.3221 82.8431C75.7016 81.4195 77.4155 80.3475 79.1823 79.472C83.1668 77.4976 87.5417 76.2255 91.9356 75.5873C96.9858 74.8535 102.124 74.989 107.129 75.988C107.439 76.05 107.283 76.5173 106.976 76.4557Z" fill="white"/>
<path d="M82.7393 78.1802C82.2869 76.6823 82.3816 75.0724 83.0066 73.6379C83.6315 72.2034 84.746 71.0378 86.151 70.3492C86.4358 70.2108 86.6642 70.6468 86.379 70.7854C85.0695 71.4242 84.0314 72.5101 83.4522 73.8471C82.873 75.184 82.7907 76.6841 83.2203 78.0764C83.3133 78.3791 82.8318 78.4811 82.7393 78.1802Z" fill="white"/>
<path d="M72.2874 86.7355C75.0928 88.2718 78.3742 88.6942 81.4772 87.9185C81.7846 87.8414 81.888 88.3225 81.581 88.3995C78.3504 89.2007 74.9366 88.7542 72.0207 87.149C71.7429 86.9958 72.0111 86.5831 72.2874 86.7355Z" fill="white"/>
<path d="M96.8154 75.4833C96.8697 76.0994 97.0762 76.6923 97.4162 77.2088C97.7563 77.7254 98.2193 78.1493 98.7637 78.4427C99.0434 78.5923 98.7748 79.0049 98.497 78.8562C97.8971 78.5293 97.3863 78.0605 97.0093 77.4906C96.6323 76.9207 96.4006 76.2672 96.3345 75.5872C96.3229 75.5236 96.3359 75.458 96.3709 75.4036C96.4059 75.3493 96.4603 75.3104 96.523 75.2947C96.5868 75.2813 96.6533 75.2936 96.708 75.3289C96.7628 75.3642 96.8014 75.4197 96.8154 75.4833Z" fill="white"/>
<path d="M75.074 87.7641C72.7193 76.3785 69.776 72.5825 69.776 72.5825L68.6516 71.7105L67.2993 70.6601L67.3059 70.5251L66.9852 70.416L66.9098 70.3575L66.7864 70.2627L66.7665 70.284L66.7246 70.3275L60.6057 68.2475L52.8428 65.6105L49.2481 60.9379C48.6626 60.1769 47.9089 59.5619 47.046 59.1409C46.1831 58.72 45.2344 58.5047 44.2743 58.5118L32.794 58.5967C31.2417 58.6082 29.7498 59.2 28.6117 60.2557L21.0659 67.2553L9.30803 72.871L9.28818 72.8511L9.16471 72.9393L7.34802 73.808L7.42298 74.1983L6.29856 75.0097C6.29856 75.0097 3.35524 78.5418 1.00057 89.136C0.401574 91.8316 0.106724 97.6142 0.000299076 104.74C-0.00504664 105.1 0.061318 105.458 0.195532 105.793C0.329747 106.127 0.529134 106.432 0.782101 106.689C1.03507 106.946 1.33657 107.15 1.66907 107.289C2.00157 107.428 2.35844 107.5 2.71893 107.5H65.5201L73.3584 107.5C73.7187 107.5 74.0753 107.428 74.4076 107.289C74.7399 107.15 75.0412 106.946 75.2941 106.69C75.5471 106.433 75.7465 106.129 75.8809 105.795C76.0153 105.46 76.082 105.103 76.0771 104.743C75.9732 96.9888 75.6784 90.6875 75.074 87.7641Z" fill="#3F3D56"/>
<path d="M83.1315 10.4292C80.6882 10.4292 78.3449 11.3998 76.6173 13.1276C74.8896 14.8554 73.9189 17.1987 73.9189 19.6422C73.9189 22.0856 74.8896 24.4289 76.6173 26.1567C78.3449 27.8845 80.6882 28.8551 83.1315 28.8551H151.787C154.231 28.8551 156.574 27.8845 158.302 26.1567C160.029 24.4289 161 22.0856 161 19.6422C161 17.1987 160.029 14.8554 158.302 13.1276C156.574 11.3998 154.231 10.4292 151.787 10.4292H83.1315Z" fill="#E5E5E5"/>
<path d="M83.1316 12.2937C81.1827 12.2937 79.3137 13.0679 77.9357 14.446C76.5576 15.8241 75.7834 17.6932 75.7834 19.6421C75.7834 21.5911 76.5576 23.4602 77.9357 24.8383C79.3137 26.2164 81.1827 26.9906 83.1316 26.9906H151.787C153.736 26.9906 155.605 26.2164 156.983 24.8383C158.361 23.4602 159.136 21.5911 159.136 19.6421C159.136 17.6932 158.361 15.8241 156.983 14.446C155.605 13.0679 153.736 12.2937 151.787 12.2937H83.1316Z" fill="white"/>
<path d="M40.337 54.1987C48.6435 54.1987 55.3773 47.4647 55.3773 39.1578C55.3773 30.8509 48.6435 24.1168 40.337 24.1168C32.0304 24.1168 25.2966 30.8509 25.2966 39.1578C25.2966 47.4647 32.0304 54.1987 40.337 54.1987Z" fill="#9E616A"/>
<path d="M36.4893 53.4621C36.4251 53.3207 36.361 53.1787 36.2971 53.0363C36.3217 53.037 36.3461 53.0406 36.3707 53.0412L36.4893 53.4621Z" fill="#2F2E41"/>
<path d="M24.8785 24.8008C25.6392 24.1939 26.5282 23.6356 27.5008 23.6669C28.4734 23.6983 29.4596 24.5767 29.2581 25.5288C31.0446 22.3656 33.888 19.9328 37.2894 18.6573C40.6907 17.3819 44.4326 17.3453 47.8583 18.5539C50.2756 19.4068 52.646 21.113 53.2013 23.6155C53.3439 24.2579 53.3745 24.9623 53.7756 25.4839C54.2813 26.1416 55.2488 26.2904 56.0456 26.0591C56.0535 26.0567 56.0615 26.0544 56.0694 26.052C56.204 26.0061 56.3493 26.0015 56.4865 26.0391C56.6237 26.0766 56.7464 26.1544 56.8389 26.2624C56.9314 26.3705 56.9893 26.5038 57.0052 26.6451C57.0211 26.7865 56.9943 26.9293 56.9281 27.0552L56.2441 28.3309C57.1063 28.523 58.0021 28.504 58.8554 28.2753C58.9971 28.2381 59.1469 28.2457 59.2841 28.297C59.4214 28.3484 59.5394 28.4409 59.622 28.5619C59.7046 28.683 59.7477 28.8266 59.7454 28.9731C59.7432 29.1196 59.6956 29.2619 59.6093 29.3803C57.3541 32.4768 53.5863 34.4763 49.7413 34.4528C47.0086 34.4361 44.2477 33.4943 41.5881 34.1227C40.5592 34.3659 39.5978 34.8363 38.7744 35.4994C37.951 36.1626 37.2865 37.0017 36.8297 37.9552C36.3729 38.9086 36.1353 39.9523 36.1344 41.0096C36.1336 42.0668 36.3694 43.1109 36.8246 44.0651C36.0076 43.1714 34.4282 43.383 33.5924 44.2593C32.7566 45.1355 32.5403 46.4434 32.6245 47.6514C32.7533 49.499 33.4771 51.2399 34.2402 52.9344C27.8423 52.7329 21.7908 48.2447 19.7539 42.1742C17.7084 36.0782 19.8521 28.8106 24.8785 24.8008Z" fill="#2F2E41"/>
<path opacity="0.2" d="M14.8037 84.3267L19.0222 107.28L21.5534 107.5L14.8037 84.3267Z" fill="black"/>
<path opacity="0.2" d="M61.2709 82.5957L57.0524 107.263L54.5212 107.5L61.2709 82.5957Z" fill="black"/>
<path d="M28.4764 17.076C27.6676 17.4138 26.8236 17.0436 26.4696 16.1959C26.1103 15.3353 26.4459 14.4616 27.2677 14.1184C28.0896 13.7752 28.9185 14.1463 29.2837 15.0208C29.6434 15.8822 29.3114 16.7273 28.4764 17.076ZM26.927 12.4244L26.2839 12.693C26.1232 12.7593 25.9436 12.7628 25.7804 12.703C25.6172 12.6431 25.4825 12.5242 25.4028 12.3698L25.3709 12.3075C24.679 11.0595 24.5997 9.54273 25.1367 7.80167C25.6341 6.23986 25.8407 5.14144 25.4252 4.14633C24.9448 2.9958 23.919 2.63539 22.6108 3.15748C22.1035 3.36935 21.942 3.36597 21.5427 3.76208C21.4559 3.84928 21.3523 3.91811 21.2383 3.96445C21.1243 4.01079 21.0021 4.03368 20.879 4.03178C20.7601 4.03038 20.6426 4.00504 20.5337 3.95726C20.4247 3.90948 20.3265 3.84025 20.2448 3.75369C20.0876 3.58688 19.9995 3.3666 19.9983 3.13734C19.9971 2.90808 20.083 2.68693 20.2386 2.51854C20.9097 1.81598 21.7192 1.26017 22.6159 0.886171C25.4266 -0.28753 26.8415 1.44527 27.489 2.99596C28.1223 4.51272 27.7661 5.92001 27.1937 7.7426C26.714 9.25706 26.7419 10.3793 27.2868 11.4951C27.3261 11.5794 27.348 11.6709 27.3512 11.7639C27.3543 11.8569 27.3386 11.9496 27.305 12.0364C27.2714 12.1232 27.2206 12.2023 27.1556 12.269C27.0907 12.3357 27.0129 12.3885 26.927 12.4244Z" fill="#FF731D"/>
<path d="M98.2969 24.0361H84.6369C84.5935 24.0364 84.5505 24.0281 84.5103 24.0117C84.4702 23.9953 84.4336 23.9711 84.4028 23.9406C84.372 23.91 84.3476 23.8736 84.3309 23.8335C84.3142 23.7935 84.3057 23.7505 84.3057 23.7071C84.3057 23.6637 84.3142 23.6207 84.3309 23.5807C84.3476 23.5406 84.372 23.5042 84.4028 23.4736C84.4336 23.4431 84.4702 23.4189 84.5103 23.4025C84.5505 23.3861 84.5935 23.3778 84.6369 23.3781H98.2969C98.3837 23.3787 98.4669 23.4136 98.5281 23.4752C98.5893 23.5369 98.6237 23.6202 98.6237 23.7071C98.6237 23.794 98.5893 23.8773 98.5281 23.939C98.4669 24.0006 98.3837 24.0355 98.2969 24.0361Z" fill="#FF731D"/>
<path d="M115.625 24.1457H101.965C101.922 24.146 101.879 24.1378 101.839 24.1214C101.799 24.1049 101.762 24.0808 101.731 24.0502C101.7 24.0196 101.676 23.9832 101.659 23.9431C101.643 23.9031 101.634 23.8601 101.634 23.8167C101.634 23.7733 101.643 23.7303 101.659 23.6903C101.676 23.6502 101.7 23.6138 101.731 23.5833C101.762 23.5527 101.799 23.5285 101.839 23.5121C101.879 23.4957 101.922 23.4874 101.965 23.4877H115.625C115.669 23.4874 115.712 23.4957 115.752 23.5121C115.792 23.5285 115.829 23.5527 115.859 23.5833C115.89 23.6138 115.915 23.6502 115.931 23.6903C115.948 23.7303 115.957 23.7733 115.957 23.8167C115.957 23.8601 115.948 23.9031 115.931 23.9431C115.915 23.9832 115.89 24.0196 115.859 24.0502C115.829 24.0808 115.792 24.1049 115.752 24.1214C115.712 24.1378 115.669 24.146 115.625 24.1457Z" fill="#FF731D"/>
<path d="M132.954 24.2555H119.294C119.207 24.2549 119.124 24.22 119.063 24.1583C119.001 24.0967 118.967 24.0133 118.967 23.9265C118.967 23.8396 119.001 23.7562 119.063 23.6946C119.124 23.6329 119.207 23.598 119.294 23.5974H132.954C132.997 23.5971 133.04 23.6054 133.08 23.6218C133.121 23.6382 133.157 23.6624 133.188 23.693C133.219 23.7236 133.243 23.76 133.26 23.8C133.276 23.8401 133.285 23.8831 133.285 23.9265C133.285 23.9699 133.276 24.0128 133.26 24.0529C133.243 24.093 133.219 24.1293 133.188 24.1599C133.157 24.1905 133.121 24.2147 133.08 24.2311C133.04 24.2475 132.997 24.2558 132.954 24.2555Z" fill="#FF731D"/>
<path d="M150.282 24.3651H136.622C136.535 24.3645 136.452 24.3296 136.391 24.2679C136.33 24.2063 136.295 24.1229 136.295 24.0361C136.295 23.9492 136.33 23.8658 136.391 23.8042C136.452 23.7425 136.535 23.7076 136.622 23.707H150.282C150.369 23.7076 150.452 23.7425 150.513 23.8042C150.575 23.8658 150.609 23.9492 150.609 24.0361C150.609 24.1229 150.575 24.2063 150.513 24.2679C150.452 24.3296 150.369 24.3645 150.282 24.3651Z" fill="#FF731D"/>
<path d="M91.4368 21.008C92.8389 21.008 93.9756 19.8713 93.9756 18.4691C93.9756 17.0669 92.8389 15.9302 91.4368 15.9302C90.0346 15.9302 88.8979 17.0669 88.8979 18.4691C88.8979 19.8713 90.0346 21.008 91.4368 21.008Z" fill="#FF731D"/>
<path d="M108.87 21.008C110.272 21.008 111.409 19.8713 111.409 18.4691C111.409 17.0669 110.272 15.9302 108.87 15.9302C107.468 15.9302 106.331 17.0669 106.331 18.4691C106.331 19.8713 107.468 21.008 108.87 21.008Z" fill="#FF731D"/>
<path d="M126.303 21.008C127.705 21.008 128.842 19.8713 128.842 18.4691C128.842 17.0669 127.705 15.9302 126.303 15.9302C124.901 15.9302 123.764 17.0669 123.764 18.4691C123.764 19.8713 124.901 21.008 126.303 21.008Z" fill="#FF731D"/>
<path d="M143.736 21.008C145.138 21.008 146.275 19.8713 146.275 18.4691C146.275 17.0669 145.138 15.9302 143.736 15.9302C142.334 15.9302 141.197 17.0669 141.197 18.4691C141.197 19.8713 142.334 21.008 143.736 21.008Z" fill="#FF731D"/>
</g>
<defs>
<clipPath id="clip0_453_1779">
<rect width="161" height="107" fill="white" transform="translate(0 0.5)"/>
</clipPath>
</defs>
</svg>
