<svg width="185" height="120" viewBox="0 0 185 120" fill="none" xmlns="http://www.w3.org/2000/svg">
<g clip-path="url(#clip0_617_1489)">
<path d="M168.74 119.645L163.456 103.693C163.456 103.693 169.268 109.507 169.268 114.278L168.224 103.246C168.224 103.246 171.205 107.271 170.907 113.384C170.609 119.496 168.74 119.645 168.74 119.645Z" fill="#E6E6E6"/>
<path d="M55.2707 105.12L50.1139 89.551C50.1139 89.551 55.786 95.2256 55.786 99.8817L54.768 89.1145C54.768 89.1145 57.6767 93.0431 57.3859 99.0087C57.095 104.974 55.2707 105.12 55.2707 105.12Z" fill="#E6E6E6"/>
<path d="M135.759 112.304C135.767 122.546 115.464 119.395 90.607 119.417C65.7504 119.438 45.7537 122.623 45.7449 112.382C45.736 102.14 66.0324 99.8954 90.889 99.8739C115.746 99.8525 135.75 102.063 135.759 112.304Z" fill="#E6E6E6"/>
<path d="M185 119.411H0V119.879H185V119.411Z" fill="#3F3D56"/>
<path d="M118.338 98.4729H115.088L113.542 85.9331H118.338V98.4729Z" fill="#A0616A"/>
<path d="M112.406 97.5442H119.035V101.492H108.821V101.131C108.821 100.18 109.199 99.2673 109.871 98.5947C110.544 97.9221 111.456 97.5442 112.406 97.5442Z" fill="#2F2E41"/>
<path d="M142.224 116.981H138.975L137.428 104.441H142.224V116.981Z" fill="#A0616A"/>
<path d="M136.293 116.052H142.921V120H132.708V119.639C132.708 118.688 133.085 117.775 133.758 117.103C134.43 116.43 135.342 116.052 136.293 116.052Z" fill="#2F2E41"/>
<path d="M157.214 79.7275C157.438 79.4549 157.601 79.1363 157.689 78.7942C157.777 78.4521 157.789 78.0948 157.725 77.7474C157.66 77.4001 157.52 77.0711 157.315 76.7838C157.109 76.4964 156.843 76.2576 156.535 76.0842L148.988 45.325L144.162 47.4022L153.139 77.1437C152.882 77.6802 152.831 78.2923 152.995 78.8641C153.159 79.4359 153.527 79.9276 154.029 80.2461C154.532 80.5645 155.133 80.6877 155.72 80.5921C156.307 80.4965 156.838 80.1889 157.214 79.7275Z" fill="#A0616A"/>
<path d="M151.327 17.5624C151.058 17.2806 150.73 17.0614 150.367 16.9202C150.004 16.779 149.614 16.7191 149.225 16.7448C148.836 16.7706 148.458 16.8813 148.116 17.0692C147.775 17.2571 147.479 17.5176 147.249 17.8324L135.567 19.1741L137.344 23.682L147.968 21.6927C148.522 22.0441 149.186 22.1799 149.833 22.0743C150.481 21.9688 151.067 21.6293 151.481 21.1202C151.895 20.6111 152.108 19.9677 152.08 19.312C152.052 18.6562 151.784 18.0337 151.327 17.5624Z" fill="#A0616A"/>
<path d="M132.076 76.5376L137.174 114.813L143.518 113.506C143.518 113.506 142.585 85.6311 145.757 82.2707C148.93 78.9103 141.677 73.0234 141.677 73.0234L132.076 76.5376Z" fill="#2F2E41"/>
<path d="M134.184 65.9949L131.842 69.5091C131.842 69.5091 113.81 62.0124 113.81 73.9605C113.81 85.9086 112.778 94.017 112.405 94.5771C112.032 95.1371 116.723 96.5904 118.962 96.217C118.962 96.217 121.725 76.9548 121.538 75.8347C121.538 75.8347 139.226 84.5109 142.585 83.7641C145.944 83.0174 146.738 80.3738 147.297 78.8803C147.857 77.3868 147.063 65.5264 147.063 65.5264L135.867 62.1082L134.184 65.9949Z" fill="#2F2E41"/>
<path d="M134.499 44.8957L133.832 44.0944C133.832 44.0944 126.356 27.2665 129.293 22.7256C132.23 18.1848 145.046 17.517 145.446 17.7841C145.847 18.0512 144.49 21.5192 145.424 23.1218C145.424 23.1218 135.496 25.2751 134.829 25.5423C134.161 25.8094 139.973 35.6804 139.973 35.6804L139.305 41.6904L134.499 44.8957Z" fill="#CCCCCC"/>
<path d="M147.582 36.6153C147.582 36.6153 140.64 37.4166 140.373 37.4166C140.106 37.4166 139.973 35.6804 139.973 35.6804L133.832 44.0944C133.832 44.0944 130.807 68.5042 131.608 68.1036C132.409 67.7029 147.182 70.004 147.315 68.9355C147.449 67.8671 147.182 62.5249 147.582 62.2578C147.983 61.9907 154.524 45.4299 154.524 45.4299C154.524 45.4299 153.856 41.9575 151.587 40.7555C149.318 39.5535 147.582 36.6153 147.582 36.6153Z" fill="#CCCCCC"/>
<path d="M152.388 43.1594L154.524 45.4298C154.524 45.4298 157.697 71.5192 155.962 72.3205C154.227 73.1219 150.81 73.0234 150.81 73.0234L147.449 60.6551L152.388 43.1594Z" fill="#CCCCCC"/>
<path d="M140.911 34.9631C144.305 34.9631 147.056 32.2109 147.056 28.8159C147.056 25.4209 144.305 22.6687 140.911 22.6687C137.518 22.6687 134.767 25.4209 134.767 28.8159C134.767 32.2109 137.518 34.9631 140.911 34.9631Z" fill="#A0616A"/>
<path d="M139.47 29.7751C139.387 28.4996 137.778 28.4559 136.501 28.4438C135.223 28.4318 133.695 28.4774 132.973 27.4234C132.495 26.7269 132.586 25.76 132.981 25.0132C133.375 24.2665 134.025 23.6921 134.663 23.1396C136.312 21.7131 138.012 20.2979 139.991 19.3849C141.971 18.4718 144.291 18.1029 146.344 18.8358C148.866 19.7362 152.276 24.3709 152.57 27.0337C152.864 29.6965 151.801 32.411 150.008 34.4008C148.215 36.3907 144.111 35.5878 141.528 36.2957C143.098 34.0725 142.063 30.0328 139.548 28.9946L139.47 29.7751Z" fill="#2F2E41"/>
<path d="M84.707 109.29C92.8535 109.29 99.4576 102.683 99.4576 94.533C99.4576 86.3829 92.8535 79.7759 84.707 79.7759C76.5604 79.7759 69.9563 86.3829 69.9563 94.533C69.9563 102.683 76.5604 109.29 84.707 109.29Z" fill="#FF731D"/>
<path d="M74.8562 78.7274C72.8119 78.7275 70.8113 78.1348 69.0967 77.0211C67.3821 75.9073 66.0269 74.3202 65.1951 72.4519L41.7886 19.7175C41.0133 17.9706 40.6032 16.0836 40.5836 14.1724C40.564 12.2612 40.9354 10.3662 41.6748 8.60381C42.4142 6.84144 43.506 5.24898 44.8832 3.92431C46.2605 2.59963 47.8939 1.57073 49.6832 0.900843C51.4725 0.230957 53.3798 -0.0657599 55.2879 0.0289327C57.1961 0.123625 59.0647 0.607726 60.7789 1.45148C62.4932 2.29523 64.0168 3.48081 65.2562 4.93534C66.4956 6.38986 67.4246 8.08261 67.9861 9.90953L84.9352 65.0618C85.4204 66.6405 85.5288 68.311 85.2517 69.9391C84.9745 71.5673 84.3196 73.1077 83.3394 74.4367C82.3592 75.7657 81.0811 76.8462 79.6078 77.5913C78.1345 78.3365 76.5071 78.7256 74.8562 78.7274Z" fill="#FF731D"/>
</g>
<defs>
<clipPath id="clip0_617_1489">
<rect width="185" height="120" fill="white"/>
</clipPath>
</defs>
</svg>
